<svg width="14" height="14" viewBox="0 0 14 14" fill="none" xmlns="http://www.w3.org/2000/svg">
<path d="M1.75 2.9138C1.75 2.27105 2.27069 1.75 2.9138 1.75H11.0862C11.729 1.75 12.25 2.27069 12.25 2.9138V11.0862C12.25 11.729 11.7293 12.25 11.0862 12.25H2.9138C2.27105 12.25 1.75 11.7293 1.75 11.0862V2.9138ZM3.70817 10.5H10.411C9.67312 9.44212 8.44719 8.75 7.05962 8.75C5.67201 8.75 4.44606 9.44212 3.70817 10.5ZM7 7.58333C8.12758 7.58333 9.04167 6.66925 9.04167 5.54167C9.04167 4.41408 8.12758 3.5 7 3.5C5.87242 3.5 4.95833 4.41408 4.95833 5.54167C4.95833 6.66925 5.87242 7.58333 7 7.58333Z" fill="#606060"/>
</svg>
