<svg width="18" height="18" viewBox="0 0 18 18" fill="none" xmlns="http://www.w3.org/2000/svg">
<path d="M2.25 3.74632C2.25 2.91992 2.91946 2.25 3.74632 2.25H14.2537C15.0801 2.25 15.75 2.91946 15.75 3.74632V14.2537C15.75 15.0801 15.0805 15.75 14.2537 15.75H3.74632C2.91992 15.75 2.25 15.0805 2.25 14.2537V3.74632ZM4.76765 13.5H13.3856C12.4369 12.1399 10.8607 11.25 9.07665 11.25C7.29258 11.25 5.71637 12.1399 4.76765 13.5ZM9 9.75C10.4497 9.75 11.625 8.57475 11.625 7.125C11.625 5.67525 10.4497 4.5 9 4.5C7.55025 4.5 6.375 5.67525 6.375 7.125C6.375 8.57475 7.55025 9.75 9 9.75Z" fill="white"/>
</svg>
