<svg width="18.000000" height="18.000000" viewBox="0 0 18 18" fill="none" xmlns="http://www.w3.org/2000/svg" xmlns:xlink="http://www.w3.org/1999/xlink"> 
	<path id="Vector" d="M2.25 3.74C2.25 2.91 2.91 2.25 3.74 2.25L14.25 2.25C15.08 2.25 15.75 2.91 15.75 3.74L15.75 14.25C15.75 15.08 15.08 15.75 14.25 15.75L3.74 15.75C2.91 15.75 2.25 15.08 2.25 14.25L2.25 3.74ZM4.76 13.5L13.38 13.5C12.43 12.13 10.86 11.25 9.07 11.25C7.29 11.25 5.71 12.13 4.76 13.5ZM9 9.75C10.44 9.75 11.62 8.57 11.62 7.12C11.62 5.67 10.44 4.5 9 4.5C7.55 4.5 6.37 5.67 6.37 7.12C6.37 8.57 7.55 9.75 9 9.75Z" fill="#909090" fill-opacity="1.000000" fill-rule="nonzero"/>
</svg>
