<svg width="18" height="18" viewBox="0 0 18 18" fill="none" xmlns="http://www.w3.org/2000/svg">
<path d="M12.75 5.24984H15.75C16.1642 5.24984 16.5 5.58563 16.5 5.99984V15.7498C16.5 16.1641 16.1642 16.4998 15.75 16.4998H6C5.58578 16.4998 5.25 16.1641 5.25 15.7498V12.75H2.25562C1.83832 12.75 1.5 12.4132 1.5 11.9944V2.25546C1.5 1.83815 1.83667 1.5 2.25562 1.5L11.9944 1.50207C12.4117 1.50216 12.75 1.83885 12.75 2.25769V5.24984ZM12.75 6.74984V11.9945C12.75 12.4117 12.4133 12.75 11.9944 12.75H6.75V14.9998H15V6.74984H12.75ZM11.25 3.00191L3 3.00016V11.25H11.25V3.00191Z" fill="white" fill-opacity="0.8"/>
</svg>
