<svg width="40" height="40" viewBox="0 0 40 40" fill="none" xmlns="http://www.w3.org/2000/svg">
<path d="M25 6.66671H8.33333V33.3334H31.6667V13.3334H25V6.66671ZM5 4.98637C5 4.07346 5.74582 3.33337 6.66417 3.33337H26.6667L34.9995 11.6667L35 34.9875C35 35.9149 34.2585 36.6667 33.3443 36.6667H6.65567C5.74127 36.6667 5 35.9079 5 35.0137V4.98637ZM25 18.3334H26.6667V26.6667H13.3333V18.3334H15V16.6667C15 13.9053 17.2385 11.6667 20 11.6667C22.7615 11.6667 25 13.9053 25 16.6667V18.3334ZM21.6667 18.3334V16.6667C21.6667 15.7462 20.9205 15 20 15C19.0795 15 18.3333 15.7462 18.3333 16.6667V18.3334H21.6667Z" fill="#D6D6D9"/>
</svg>
