<svg width="20.000000" height="20.000000" viewBox="0 0 20 20" fill="none" xmlns="http://www.w3.org/2000/svg" xmlns:xlink="http://www.w3.org/1999/xlink">
	<desc>
			Created with Pixso.
	</desc>
	<defs/>
	<rect id="global-line" rx="0.000000" width="19.000000" height="19.000000" transform="translate(0.500000 0.500000)" fill="#FFFFFF" fill-opacity="0"/>
	<path id="Vector" d="M10 18.33C5.39 18.33 1.66 14.6 1.66 10C1.66 5.39 5.39 1.66 10 1.66C14.6 1.66 18.33 5.39 18.33 10C18.33 14.6 14.6 18.33 10 18.33ZM8.09 16.38C7.28 14.68 6.79 12.81 6.68 10.83L3.38 10.83C3.71 13.48 5.59 15.64 8.09 16.38ZM8.35 10.83C8.48 12.86 9.06 14.77 10 16.45C10.93 14.77 11.51 12.86 11.64 10.83L8.35 10.83ZM16.61 10.83L13.31 10.83C13.2 12.81 12.71 14.68 11.9 16.38C14.4 15.64 16.28 13.48 16.61 10.83ZM3.38 9.16L6.68 9.16C6.79 7.18 7.28 5.31 8.09 3.61C5.59 4.35 3.71 6.51 3.38 9.16ZM8.35 9.16L11.64 9.16C11.51 7.13 10.93 5.22 10 3.53C9.06 5.22 8.48 7.13 8.35 9.16ZM11.9 3.61C12.71 5.31 13.2 7.18 13.31 9.16L16.61 9.16C16.28 6.51 14.4 4.35 11.9 3.61Z" fill="#909090" fill-opacity="1.000000" fill-rule="nonzero"/>
</svg>
