<svg width="20" height="20" viewBox="0 0 20 20" fill="none" xmlns="http://www.w3.org/2000/svg">
<path d="M9.875 17.0832C9.94445 17.0832 10.0243 17.0693 10.1146 17.0415C10.2049 17.0137 10.2778 16.9651 10.3333 16.8957L17.3125 9.89567C17.5069 9.70123 17.6597 9.47553 17.7708 9.21859C17.8819 8.96164 17.9375 8.69428 17.9375 8.4165C17.9375 8.13873 17.8819 7.86442 17.7708 7.59359C17.6597 7.32275 17.5069 7.08317 17.3125 6.87484L13.8958 3.45817C13.7014 3.27762 13.4826 3.1422 13.2396 3.05192C12.9965 2.96164 12.75 2.9165 12.5 2.9165C12.25 2.9165 12.0035 2.95817 11.7604 3.0415C11.5174 3.12484 11.3125 3.24984 11.1458 3.4165L10.8542 3.729L12.4583 5.354C12.6667 5.57623 12.8507 5.83317 13.0104 6.12484C13.1701 6.4165 13.25 6.74289 13.25 7.104C13.25 7.68734 13.0174 8.20817 12.5521 8.6665C12.0868 9.12484 11.5556 9.354 10.9583 9.354C10.5694 9.354 10.2431 9.29498 9.97917 9.17692C9.71528 9.05886 9.47223 8.88873 9.25 8.6665L7.75 7.1665L4.1875 10.729C4.11806 10.7846 4.06945 10.854 4.04167 10.9373C4.01389 11.0207 4 11.104 4 11.1873C4 11.3679 4.05903 11.5137 4.17709 11.6248C4.29514 11.7359 4.4375 11.7915 4.60417 11.7915C4.70139 11.7915 4.7882 11.7707 4.86459 11.729C4.94098 11.6873 5.00695 11.6387 5.0625 11.5832L7.8125 8.83317L8.6875 9.70817L5.95834 12.4373C5.88889 12.5068 5.84028 12.5866 5.8125 12.6769C5.78473 12.7672 5.77084 12.854 5.77084 12.9373C5.77084 13.104 5.82986 13.2464 5.94792 13.3644C6.06598 13.4825 6.20834 13.5415 6.375 13.5415C6.45834 13.5415 6.54167 13.5241 6.625 13.4894C6.70834 13.4547 6.77778 13.4096 6.83334 13.354L9.5625 10.604L10.4375 11.479L7.6875 14.229C7.64584 14.2846 7.60417 14.354 7.5625 14.4373C7.52084 14.5207 7.5 14.6109 7.5 14.7082C7.5 14.8748 7.5625 15.0207 7.6875 15.1457C7.8125 15.2707 7.95834 15.3332 8.125 15.3332C8.20834 15.3332 8.2882 15.3158 8.36459 15.2811C8.44098 15.2464 8.50695 15.2012 8.5625 15.1457L11.3333 12.3748L12.2083 13.2498L9.4375 15.9998C9.38195 16.0693 9.33681 16.1491 9.30209 16.2394C9.26736 16.3297 9.25 16.4096 9.25 16.479C9.25 16.6734 9.30556 16.8228 9.41667 16.9269C9.52778 17.0311 9.68056 17.0832 9.875 17.0832ZM9.875 18.604C9.38889 18.604 8.94792 18.4304 8.55209 18.0832C8.15625 17.7359 7.90278 17.3054 7.79167 16.7915C7.33334 16.7082 6.94445 16.5033 6.625 16.1769C6.30556 15.8505 6.10417 15.4651 6.02084 15.0207C5.59028 14.9373 5.21528 14.7325 4.89584 14.4061C4.57639 14.0797 4.375 13.7012 4.29167 13.2707C3.76389 13.1734 3.32986 12.9269 2.98959 12.5311C2.64931 12.1353 2.47917 11.6804 2.47917 11.1665C2.47917 10.8887 2.53125 10.6179 2.63542 10.354C2.73959 10.0901 2.88889 9.854 3.08334 9.64567L7.75 4.979L10.2083 7.43734C10.3194 7.54845 10.441 7.63873 10.5729 7.70817C10.7049 7.77762 10.8472 7.81234 11 7.81234C11.1667 7.81234 11.3264 7.73248 11.4792 7.57275C11.6319 7.41303 11.7083 7.24289 11.7083 7.06234C11.7083 6.979 11.6806 6.88178 11.625 6.77067C11.5694 6.65956 11.4931 6.54845 11.3958 6.43734L8.39584 3.43734C8.21528 3.25678 7.99653 3.12484 7.73959 3.0415C7.48264 2.95817 7.22223 2.9165 6.95834 2.9165C6.69445 2.9165 6.44445 2.95817 6.20834 3.0415C5.97223 3.12484 5.77084 3.25678 5.60417 3.43734L2.5625 6.45817C2.38195 6.63873 2.25695 6.84012 2.1875 7.06234C2.11806 7.28456 2.07639 7.5415 2.0625 7.83317C2.07639 8.08317 2.13889 8.31581 2.25 8.53109C2.36111 8.74637 2.48611 8.95123 2.625 9.14567L1.54167 10.229C1.26389 9.96511 1.03473 9.60748 0.85417 9.15609C0.673615 8.7047 0.576392 8.25678 0.562503 7.81234C0.548615 7.32623 0.621531 6.87831 0.781253 6.46859C0.940976 6.05886 1.18056 5.70123 1.5 5.39567L4.5 2.354C4.81945 2.03456 5.20139 1.79845 5.64584 1.64567C6.09028 1.49289 6.53473 1.4165 6.97917 1.4165C7.45139 1.4165 7.89931 1.49289 8.32292 1.64567C8.74653 1.79845 9.11806 2.02761 9.4375 2.33317L9.75 2.62484L10.0417 2.33317C10.3472 2.0415 10.7222 1.81581 11.1667 1.65609C11.6111 1.49636 12.0556 1.4165 12.5 1.4165C12.9583 1.4165 13.4028 1.49984 13.8333 1.6665C14.2639 1.83317 14.6389 2.07623 14.9583 2.39567L18.4583 5.87484C18.7778 6.19428 19.0208 6.58317 19.1875 7.0415C19.3542 7.49984 19.4375 7.95123 19.4375 8.39567C19.4375 8.854 19.3507 9.31234 19.1771 9.77067C19.0035 10.229 18.75 10.6318 18.4167 10.979L11.3958 17.979C11.2014 18.1734 10.9722 18.3262 10.7083 18.4373C10.4444 18.5484 10.1667 18.604 9.875 18.604Z" fill="#909090"/>
</svg>
