<svg width="20" height="20" viewBox="0 0 20 20" fill="none" xmlns="http://www.w3.org/2000/svg">
<path d="M9.87496 17.0834C9.9444 17.0834 10.0243 17.0695 10.1145 17.0417C10.2048 17.014 10.2777 16.9654 10.3333 16.8959L17.3125 9.89592C17.5069 9.70147 17.6597 9.47578 17.7708 9.21883C17.8819 8.96189 17.9375 8.69453 17.9375 8.41675C17.9375 8.13897 17.8819 7.86467 17.7708 7.59383C17.6597 7.323 17.5069 7.08341 17.3125 6.87508L13.8958 3.45841C13.7013 3.27786 13.4826 3.14244 13.2395 3.05216C12.9965 2.96189 12.75 2.91675 12.5 2.91675C12.25 2.91675 12.0034 2.95841 11.7604 3.04175C11.5173 3.12508 11.3125 3.25008 11.1458 3.41675L10.8541 3.72925L12.4583 5.35425C12.6666 5.57647 12.8507 5.83341 13.0104 6.12508C13.1701 6.41675 13.25 6.74314 13.25 7.10425C13.25 7.68758 13.0173 8.20841 12.552 8.66675C12.0868 9.12508 11.5555 9.35425 10.9583 9.35425C10.5694 9.35425 10.243 9.29522 9.97912 9.17716C9.71524 9.05911 9.47218 8.88897 9.24996 8.66675L7.74996 7.16675L4.18746 10.7292C4.11801 10.7848 4.0694 10.8542 4.04162 10.9376C4.01385 11.0209 3.99996 11.1042 3.99996 11.1876C3.99996 11.3681 4.05899 11.514 4.17704 11.6251C4.2951 11.7362 4.43746 11.7917 4.60412 11.7917C4.70135 11.7917 4.78815 11.7709 4.86454 11.7292C4.94093 11.6876 5.0069 11.639 5.06246 11.5834L7.81246 8.83342L8.68746 9.70841L5.95829 12.4376C5.88885 12.507 5.84024 12.5869 5.81246 12.6772C5.78468 12.7674 5.77079 12.8542 5.77079 12.9376C5.77079 13.1042 5.82982 13.2466 5.94787 13.3647C6.06593 13.4827 6.20829 13.5417 6.37496 13.5417C6.45829 13.5417 6.54162 13.5244 6.62496 13.4897C6.70829 13.4549 6.77774 13.4098 6.83329 13.3542L9.56246 10.6042L10.4375 11.4792L7.68746 14.2292C7.64579 14.2848 7.60412 14.3542 7.56246 14.4376C7.52079 14.5209 7.49996 14.6112 7.49996 14.7084C7.49996 14.8751 7.56246 15.0209 7.68746 15.1459C7.81246 15.2709 7.95829 15.3334 8.12496 15.3334C8.20829 15.3334 8.28815 15.3161 8.36454 15.2813C8.44093 15.2466 8.5069 15.2015 8.56246 15.1459L11.3333 12.3751L12.2083 13.2501L9.43746 16.0001C9.3819 16.0695 9.33676 16.1494 9.30204 16.2397C9.26732 16.3299 9.24996 16.4098 9.24996 16.4792C9.24996 16.6737 9.30551 16.823 9.41662 16.9272C9.52773 17.0313 9.68051 17.0834 9.87496 17.0834ZM9.87496 18.6042C9.38885 18.6042 8.94787 18.4306 8.55204 18.0834C8.15621 17.7362 7.90274 17.3056 7.79162 16.7917C7.33329 16.7084 6.9444 16.5036 6.62496 16.1772C6.30551 15.8508 6.10412 15.4654 6.02079 15.0209C5.59024 14.9376 5.21524 14.7327 4.89579 14.4063C4.57635 14.0799 4.37496 13.7015 4.29162 13.2709C3.76385 13.1737 3.32982 12.9272 2.98954 12.5313C2.64926 12.1355 2.47912 11.6806 2.47912 11.1667C2.47912 10.889 2.53121 10.6181 2.63537 10.3542C2.73954 10.0904 2.88885 9.85425 3.08329 9.64591L7.74996 4.97925L10.2083 7.43758C10.3194 7.54869 10.4409 7.63897 10.5729 7.70841C10.7048 7.77786 10.8472 7.81258 11 7.81258C11.1666 7.81258 11.3263 7.73272 11.4791 7.573C11.6319 7.41328 11.7083 7.24314 11.7083 7.06258C11.7083 6.97925 11.6805 6.88203 11.625 6.77091C11.5694 6.6598 11.493 6.54869 11.3958 6.43758L8.39579 3.43758C8.21523 3.25703 7.99649 3.12508 7.73954 3.04175C7.4826 2.95841 7.22218 2.91675 6.95829 2.91675C6.6944 2.91675 6.4444 2.95841 6.20829 3.04175C5.97218 3.12508 5.77079 3.25703 5.60412 3.43758L2.56246 6.45841C2.3819 6.63897 2.2569 6.84036 2.18746 7.06258C2.11801 7.2848 2.07635 7.54175 2.06246 7.83341C2.07635 8.08341 2.13885 8.31605 2.24996 8.53133C2.36107 8.74661 2.48607 8.95147 2.62496 9.14592L1.54162 10.2292C1.26385 9.96536 1.03468 9.60772 0.854124 9.15633C0.673569 8.70494 0.576347 8.25703 0.562458 7.81258C0.548569 7.32647 0.621485 6.87855 0.781208 6.46883C0.94093 6.05911 1.18051 5.70147 1.49996 5.39591L4.49996 2.35425C4.8194 2.0348 5.20135 1.79869 5.64579 1.64591C6.09024 1.49314 6.53468 1.41675 6.97912 1.41675C7.45135 1.41675 7.89926 1.49314 8.32287 1.64591C8.74648 1.79869 9.11801 2.02786 9.43746 2.33341L9.74996 2.62508L10.0416 2.33341C10.3472 2.04175 10.7222 1.81605 11.1666 1.65633C11.6111 1.49661 12.0555 1.41675 12.5 1.41675C12.9583 1.41675 13.4027 1.50008 13.8333 1.66675C14.2638 1.83341 14.6388 2.07647 14.9583 2.39591L18.4583 5.87508C18.7777 6.19453 19.0208 6.58341 19.1875 7.04175C19.3541 7.50008 19.4375 7.95147 19.4375 8.39591C19.4375 8.85425 19.3507 9.31258 19.177 9.77092C19.0034 10.2292 18.75 10.632 18.4166 10.9792L11.3958 17.9792C11.2013 18.1737 10.9722 18.3265 10.7083 18.4376C10.4444 18.5487 10.1666 18.6042 9.87496 18.6042Z" fill="black"/>
</svg>
