<svg width="17" height="17" viewBox="0 0 17 17" fill="none" xmlns="http://www.w3.org/2000/svg">
<path d="M8.39375 14.5208C8.45278 14.5208 8.52066 14.509 8.5974 14.4854C8.67413 14.4617 8.73611 14.4204 8.78333 14.3614L14.7156 8.41139C14.8809 8.24612 15.0108 8.05428 15.1052 7.83587C15.1997 7.61747 15.2469 7.39021 15.2469 7.1541C15.2469 6.91799 15.1997 6.68483 15.1052 6.45462C15.0108 6.22441 14.8809 6.02077 14.7156 5.84368L11.8115 2.93952C11.6462 2.78605 11.4602 2.67094 11.2536 2.59421C11.047 2.51747 10.8375 2.4791 10.625 2.4791C10.4125 2.4791 10.203 2.51452 9.99635 2.58535C9.78976 2.65618 9.61562 2.76243 9.47396 2.9041L9.22604 3.16973L10.5896 4.55098C10.7667 4.73987 10.9231 4.95827 11.0589 5.20618C11.1946 5.4541 11.2625 5.73153 11.2625 6.03848C11.2625 6.53431 11.0648 6.97702 10.6693 7.3666C10.2738 7.75618 9.82222 7.95098 9.31458 7.95098C8.98403 7.95098 8.7066 7.9008 8.48229 7.80046C8.25799 7.70011 8.05139 7.55549 7.8625 7.3666L6.5875 6.0916L3.55937 9.11973C3.50035 9.16695 3.45903 9.22598 3.43542 9.29681C3.4118 9.36764 3.4 9.43848 3.4 9.50931C3.4 9.66278 3.45017 9.78674 3.55052 9.88118C3.65087 9.97563 3.77187 10.0229 3.91354 10.0229C3.99618 10.0229 4.06996 10.0051 4.1349 9.96973C4.19983 9.93431 4.2559 9.89299 4.30312 9.84577L6.64062 7.50827L7.38437 8.25202L5.06458 10.5718C5.00556 10.6308 4.96424 10.6987 4.94062 10.7755C4.91701 10.8522 4.90521 10.926 4.90521 10.9968C4.90521 11.1385 4.95538 11.2595 5.05573 11.3598C5.15608 11.4602 5.27708 11.5104 5.41875 11.5104C5.48958 11.5104 5.56042 11.4956 5.63125 11.4661C5.70208 11.4366 5.76111 11.3982 5.80833 11.351L8.12812 9.01348L8.87187 9.75723L6.53437 12.0947C6.49896 12.1419 6.46354 12.201 6.42812 12.2718C6.39271 12.3426 6.375 12.4194 6.375 12.502C6.375 12.6437 6.42812 12.7676 6.53437 12.8739C6.64062 12.9801 6.76458 13.0333 6.90625 13.0333C6.97708 13.0333 7.04496 13.0185 7.1099 12.989C7.17483 12.9595 7.2309 12.9211 7.27812 12.8739L9.63333 10.5187L10.3771 11.2624L8.02187 13.5999C7.97465 13.659 7.93628 13.7268 7.90677 13.8036C7.87726 13.8803 7.8625 13.9482 7.8625 14.0072C7.8625 14.1725 7.90972 14.2994 8.00417 14.388C8.09861 14.4765 8.22847 14.5208 8.39375 14.5208ZM8.39375 15.8135C7.98056 15.8135 7.60573 15.6659 7.26927 15.3708C6.93281 15.0756 6.71736 14.7097 6.62292 14.2729C6.23333 14.202 5.90278 14.0279 5.63125 13.7505C5.35972 13.473 5.18854 13.1454 5.11771 12.7676C4.75174 12.6968 4.43299 12.5227 4.16146 12.2452C3.88993 11.9678 3.71875 11.6461 3.64792 11.2801C3.19931 11.1975 2.83038 10.988 2.54115 10.6515C2.25191 10.315 2.10729 9.92841 2.10729 9.4916C2.10729 9.25549 2.15156 9.02528 2.2401 8.80098C2.32864 8.57667 2.45555 8.37598 2.62083 8.19889L6.5875 4.23223L8.67708 6.32181C8.77153 6.41625 8.87483 6.49299 8.98698 6.55202C9.09913 6.61105 9.22014 6.64056 9.35 6.64056C9.49167 6.64056 9.62743 6.57268 9.75729 6.43691C9.88715 6.30115 9.95208 6.15653 9.95208 6.00306C9.95208 5.93223 9.92847 5.84959 9.88125 5.75514C9.83403 5.6607 9.7691 5.56625 9.68646 5.47181L7.13646 2.92181C6.98299 2.76834 6.79705 2.65618 6.57865 2.58535C6.36024 2.51452 6.13889 2.4791 5.91458 2.4791C5.69028 2.4791 5.47778 2.51452 5.27708 2.58535C5.07639 2.65618 4.90521 2.76834 4.76354 2.92181L2.17812 5.48952C2.02465 5.64299 1.9184 5.81417 1.85937 6.00306C1.80035 6.19195 1.76493 6.41035 1.75312 6.65827C1.76493 6.87077 1.81805 7.06851 1.9125 7.2515C2.00694 7.43448 2.11319 7.60862 2.23125 7.77389L1.31042 8.69473C1.0743 8.47042 0.879513 8.16643 0.726041 7.78275C0.572569 7.39907 0.48993 7.01834 0.478124 6.64056C0.466319 6.22737 0.528298 5.84664 0.664062 5.49837C0.799826 5.15011 1.00347 4.84612 1.275 4.58639L3.825 2.00098C4.09653 1.72945 4.42118 1.52875 4.79896 1.39889C5.17674 1.26903 5.55451 1.2041 5.93229 1.2041C6.33368 1.2041 6.71441 1.26903 7.07448 1.39889C7.43455 1.52875 7.75035 1.72355 8.02187 1.98327L8.2875 2.23118L8.53542 1.98327C8.79514 1.73535 9.11389 1.54351 9.49167 1.40775C9.86944 1.27198 10.2472 1.2041 10.625 1.2041C11.0146 1.2041 11.3924 1.27493 11.7583 1.4166C12.1243 1.55827 12.4431 1.76487 12.7146 2.03639L15.6896 4.99369C15.9611 5.26521 16.1677 5.59577 16.3094 5.98535C16.451 6.37493 16.5219 6.75862 16.5219 7.13639C16.5219 7.52598 16.4481 7.91556 16.3005 8.30514C16.153 8.69473 15.9375 9.03709 15.6542 9.33223L9.68646 15.2822C9.52118 15.4475 9.32639 15.5774 9.10208 15.6718C8.87778 15.7663 8.64167 15.8135 8.39375 15.8135Z" fill="white"/>
</svg>
