<svg width="12" height="10" viewBox="0 0 12 10" fill="none" xmlns="http://www.w3.org/2000/svg">
<path d="M9.21872 9.24804V6.27441H8.36035V3.72558C8.36035 3.49194 8.4444 3.29193 8.6125 3.12555C8.78059 2.95917 8.98267 2.87598 9.21872 2.87598H10.9354C11.1715 2.87598 11.3736 2.95917 11.5417 3.12555C11.7098 3.29193 11.7938 3.49194 11.7938 3.72558V6.27441H10.9354V9.24804H9.21872ZM10.0771 2.45117C9.84103 2.45117 9.63896 2.36798 9.47086 2.2016C9.30276 2.03522 9.21872 1.8352 9.21872 1.60156C9.21872 1.36792 9.30276 1.16791 9.47086 1.00153C9.63896 0.835144 9.84103 0.751953 10.0771 0.751953C10.3131 0.751953 10.5152 0.835144 10.6833 1.00153C10.8514 1.16791 10.9354 1.36792 10.9354 1.60156C10.9354 1.8352 10.8514 2.03522 10.6833 2.2016C10.5152 2.36798 10.3131 2.45117 10.0771 2.45117Z" fill="white"/>
<path d="M7.03863 2.88022C6.9528 2.62959 6.71246 2.45117 6.4292 2.45117H1.70819C1.42493 2.45117 1.18888 2.62959 1.09875 2.88022L0.253265 5.28887C0.223222 5.37807 0.206055 5.47153 0.206055 5.56924V8.61084C0.206055 8.96342 0.493607 9.24804 0.849828 9.24804C1.20605 9.24804 1.4936 8.96342 1.4936 8.61084V8.39843H6.64379V8.61084C6.64379 8.95918 6.93134 9.24804 7.28756 9.24804C7.63949 9.24804 7.93133 8.96342 7.93133 8.61084V5.56924C7.93133 5.47578 7.91417 5.37807 7.88412 5.28887L7.03863 2.88022ZM1.70819 7.12402C1.35197 7.12402 1.06442 6.8394 1.06442 6.48681C1.06442 6.13423 1.35197 5.84961 1.70819 5.84961C2.06441 5.84961 2.35197 6.13423 2.35197 6.48681C2.35197 6.8394 2.06441 7.12402 1.70819 7.12402ZM6.4292 7.12402C6.07297 7.12402 5.78542 6.8394 5.78542 6.48681C5.78542 6.13423 6.07297 5.84961 6.4292 5.84961C6.78542 5.84961 7.07297 6.13423 7.07297 6.48681C7.07297 6.8394 6.78542 7.12402 6.4292 7.12402ZM1.06442 5L1.60948 3.37725C1.66957 3.20732 1.83265 3.08838 2.0172 3.08838H6.12018C6.30473 3.08838 6.46782 3.20732 6.52791 3.37725L7.07297 5H1.06442Z" fill="white"/>
</svg>
