<svg width="30" height="30" viewBox="0 0 30 30" fill="none" xmlns="http://www.w3.org/2000/svg">
<g clip-path="url(#clip0_3325_1801)">
<path d="M27.216 5.06494C27.216 5.06494 25.708 5.51394 23.837 5.51394C20.509 5.51394 18.118 4.21594 16.714 1.61994C16.194 0.671944 15.518 0.171944 15.414 0.121944C15.154 -0.0780559 14.738 -0.0280559 14.53 0.221944L13.438 1.46994C10.734 4.61594 7.459 5.26394 5.224 5.26394C3.82 5.26394 2.832 5.01394 2.832 5.01394C2.416 4.91594 2 5.21494 2 5.61494V18.7449C2 22.6889 4.963 25.5349 8.499 27.4819C11.619 29.1789 14.687 29.9269 14.842 29.9779C14.946 29.9779 15.05 30.0269 15.154 29.9779C15.258 29.9269 18.378 29.2279 21.497 27.4819C25.032 25.5349 27.995 22.6889 27.995 18.7449V5.66494C28.048 5.21494 27.632 4.91594 27.216 5.06494ZM26.747 18.7449C26.747 21.6899 24.772 24.2359 20.925 26.3829C18.325 27.7809 15.726 28.5299 15.05 28.7309C14.374 28.5809 11.775 27.8319 9.175 26.3829C5.328 24.2369 3.352 21.6909 3.352 18.7449V6.41394C3.82 6.51394 4.496 6.56394 5.276 6.56394C7.823 6.56394 11.463 5.81494 14.479 2.31994L15.103 1.57094C15.259 1.72094 15.415 1.92094 15.519 2.16994C17.547 5.96394 21.134 6.76294 23.786 6.76294C24.981 6.76294 26.022 6.61294 26.749 6.46294V18.7449H26.747Z" fill="black"/>
<path d="M16.4539 6.21391C16.0379 5.51491 15.4659 5.11491 15.4129 5.06591C15.1529 4.91691 14.7889 4.96591 14.5809 5.16591L13.7499 6.11391C11.7229 8.31091 9.33089 8.80991 7.61489 8.80991C6.57489 8.80991 5.84689 8.60991 5.84689 8.60991C5.43089 8.50991 5.01489 8.80991 5.01489 9.20891V18.5959C5.01489 21.0919 6.72989 23.3379 10.0579 25.0349C12.4499 26.2829 14.7889 26.7829 14.8929 26.8329C14.9969 26.8329 15.1009 26.8329 15.2049 26.8329C15.3089 26.8329 17.6489 26.2829 20.0399 25.0349C23.3149 23.3379 25.0839 21.0919 25.0839 18.5959V9.20891C25.0839 8.80991 24.6679 8.50991 24.2519 8.60991C24.2519 8.60991 23.1599 8.90991 21.7039 8.90991C19.2089 8.95891 17.4419 8.01091 16.4539 6.21391ZM23.7319 10.0079V18.6459C23.7319 23.2389 16.1939 25.3349 15.0489 25.6349C13.9049 25.3349 6.36689 23.2879 6.36689 18.6459V9.95791C6.72989 10.0079 7.14589 10.0579 7.66589 10.0579C12.6579 10.0579 14.8939 6.66291 15.1019 6.56391C15.1539 6.66391 15.2579 6.76391 15.3099 6.86291C16.8699 9.65791 19.6249 10.2079 21.7049 10.2079C22.4839 10.2079 23.2119 10.1079 23.7319 10.0079Z" fill="black"/>
<path d="M9.22705 16.8979C9.22705 19.9929 11.8261 22.5389 15.1021 22.5389C18.3781 22.5389 20.977 20.0429 20.977 16.8979C20.977 13.7519 18.2731 11.2549 15.0501 11.2549C11.8261 11.2559 9.22705 13.7519 9.22705 16.8979ZM19.6251 16.8979C19.6251 19.2939 17.5971 21.2909 15.0501 21.2909C12.5031 21.2909 10.4751 19.3439 10.4751 16.8979C10.4751 14.4509 12.5031 12.5029 15.0501 12.5029C17.5971 12.5039 19.6251 14.4509 19.6251 16.8979Z" fill="black"/>
<path d="M13.5419 17.048C13.2819 16.799 12.8659 16.799 12.6059 17.048C12.3459 17.297 12.3459 17.697 12.6059 17.946L13.9059 19.194C14.2179 19.494 14.6859 19.443 14.8939 19.094L17.4929 15.349C17.7019 15.049 17.5969 14.65 17.3369 14.5C17.0259 14.301 16.6099 14.4 16.4539 14.65L14.3219 17.745L13.5419 17.048Z" fill="black"/>
</g>
<defs>
<clipPath id="clip0_3325_1801">
<rect width="30" height="30" fill="white"/>
</clipPath>
</defs>
</svg>
