<svg width="18" height="18" viewBox="0 0 18 18" fill="none" xmlns="http://www.w3.org/2000/svg">
<mask id="mask0_3372_1926" style="mask-type:alpha" maskUnits="userSpaceOnUse" x="0" y="0" width="18" height="18">
<rect width="18" height="18" fill="#D9D9D9"/>
</mask>
<g mask="url(#mask0_3372_1926)">
<path d="M6.25 16V9V8.5H6.75C7.02884 8.5 7.25509 8.40655 7.45582 8.20582C7.65655 8.00509 7.75 7.77884 7.75 7.5V3.525C7.75 3.51532 7.7492 3.50943 7.74869 3.50663L6.25 16ZM6.25 16H5.75V9V8.5H5.25C4.97116 8.5 4.74491 8.40655 4.54418 8.20582C4.34345 8.00509 4.25 7.77884 4.25 7.5V3.525C4.25 3.51532 4.2508 3.50943 4.25131 3.50663L6.25 16ZM4.3 6.5V6V3.525C4.3 3.51532 4.2992 3.50943 4.29869 3.50663L4.3 6.5ZM4.3 6.5H4.8M4.3 6.5H4.8M4.8 6.5H5.475H5.975M4.8 6.5H5.975M5.975 6.5V6M5.975 6.5V6M5.975 6V3.525M5.975 6V3.525M6.025 6.5V6V3.525C6.025 3.51532 6.0242 3.50943 6.02369 3.50663L6.025 6.5ZM6.025 6.5H6.525M6.025 6.5H6.525M6.525 6.5H7.2H7.7M6.525 6.5H7.7M7.7 6.5V6M7.7 6.5V6M7.7 6V3.525M7.7 6V3.525M5.975 3.525C5.975 3.51532 5.9758 3.50943 5.97631 3.50663M5.975 3.525L5.97631 3.50663M5.97631 3.50663C5.97637 3.5063 5.97643 3.50601 5.97648 3.50574M5.97631 3.50663L5.97648 3.50574M5.97648 3.50574C5.97698 3.50518 5.97766 3.50445 5.97855 3.50355C5.97945 3.50266 5.98018 3.50198 5.98074 3.50148C5.981 3.50143 5.9813 3.50137 5.98163 3.50131C5.98443 3.5008 5.99032 3.5 6 3.5C6.00968 3.5 6.01557 3.5008 6.01837 3.50131L5.97648 3.50574ZM7.7 3.525C7.7 3.51532 7.7008 3.50943 7.70131 3.50663M7.7 3.525L7.70131 3.50663M7.70131 3.50663C7.70137 3.5063 7.70143 3.50601 7.70148 3.50574M7.70131 3.50663L7.70148 3.50574M7.70148 3.50574C7.70198 3.50518 7.70266 3.50445 7.70355 3.50355C7.70445 3.50266 7.70518 3.50198 7.70574 3.50148C7.70601 3.50143 7.7063 3.50137 7.70663 3.50131C7.70943 3.5008 7.71532 3.5 7.725 3.5C7.73468 3.5 7.74057 3.5008 7.74337 3.50131L7.70148 3.50574ZM4.25148 3.50574C4.25198 3.50518 4.25266 3.50445 4.25355 3.50355C4.25445 3.50266 4.25518 3.50198 4.25574 3.50148C4.256 3.50143 4.2563 3.50137 4.25663 3.50131C4.25943 3.5008 4.26532 3.5 4.275 3.5C4.28468 3.5 4.29057 3.5008 4.29337 3.50131L4.25148 3.50574ZM13 12.7125V16H12.5V8.925V8.6093L12.215 8.47357C11.7974 8.27473 11.5017 7.97185 11.3127 7.54906C11.1042 7.08264 11 6.59287 11 6.075C11 5.37534 11.1736 4.75865 11.5149 4.2115C11.8222 3.71881 12.2191 3.5 12.75 3.5C13.2809 3.5 13.6778 3.71881 13.9851 4.2115C14.3264 4.75865 14.5 5.37534 14.5 6.075C14.5 6.59287 14.3958 7.08264 14.1873 7.54906C13.9983 7.97185 13.7026 8.27473 13.285 8.47357L13 8.6093V8.925V12.7125ZM4.29426 3.50148C4.29482 3.50198 4.29555 3.50266 4.29645 3.50355C4.29734 3.50445 4.29802 3.50518 4.29852 3.50574L4.29426 3.50148ZM6.01926 3.50148C6.01982 3.50198 6.02055 3.50266 6.02145 3.50355C6.02234 3.50445 6.02302 3.50518 6.02352 3.50574L6.01926 3.50148ZM7.74426 3.50148C7.74482 3.50198 7.74555 3.50266 7.74645 3.50355C7.74734 3.50445 7.74802 3.50518 7.74852 3.50574L7.74426 3.50148Z" fill="white" stroke="white"/>
</g>
</svg>
