<svg width="18" height="18" viewBox="0 0 18 18" fill="none" xmlns="http://www.w3.org/2000/svg">
<path d="M2.7 14.4737V2.68421V12.2421V10.4526V14.4737ZM2.7 16.1579C2.2325 16.1579 1.83229 15.993 1.49938 15.6632C1.16646 15.3333 1 14.9368 1 14.4737V2.68421C1 2.22105 1.16646 1.82456 1.49938 1.49474C1.83229 1.16491 2.2325 1 2.7 1H14.6C15.0675 1 15.4677 1.16491 15.8006 1.49474C16.1335 1.82456 16.3 2.22105 16.3 2.68421V9.42105H14.6V2.68421H2.7V14.4737H8.65V16.1579H2.7ZM13.1975 17L10.18 14.0105L11.3913 12.8316L13.1975 14.6211L16.81 11.0421L18 12.2421L13.1975 17ZM5.25 9.42105C5.49083 9.42105 5.69271 9.34035 5.85563 9.17895C6.01854 9.01754 6.1 8.81754 6.1 8.57895C6.1 8.34035 6.01854 8.14035 5.85563 7.97895C5.69271 7.81754 5.49083 7.73684 5.25 7.73684C5.00917 7.73684 4.80729 7.81754 4.64438 7.97895C4.48146 8.14035 4.4 8.34035 4.4 8.57895C4.4 8.81754 4.48146 9.01754 4.64438 9.17895C4.80729 9.34035 5.00917 9.42105 5.25 9.42105ZM5.25 6.05263C5.49083 6.05263 5.69271 5.97193 5.85563 5.81053C6.01854 5.64912 6.1 5.44912 6.1 5.21053C6.1 4.97193 6.01854 4.77193 5.85563 4.61053C5.69271 4.44912 5.49083 4.36842 5.25 4.36842C5.00917 4.36842 4.80729 4.44912 4.64438 4.61053C4.48146 4.77193 4.4 4.97193 4.4 5.21053C4.4 5.44912 4.48146 5.64912 4.64438 5.81053C4.80729 5.97193 5.00917 6.05263 5.25 6.05263ZM7.8 9.42105H12.9V7.73684H7.8V9.42105ZM7.8 6.05263H12.9V4.36842H7.8V6.05263Z" fill="#909090"/>
</svg>
