<svg width="20" height="20" viewBox="0 0 20 20" fill="none" xmlns="http://www.w3.org/2000/svg">
<path d="M16.9444 4.1665H3.05551C2.29857 4.19428 1.6944 4.79845 1.66663 5.55539V15.2776C1.6944 16.0346 2.29857 16.6387 3.05551 16.6665H16.9444C17.7013 16.6387 18.3055 16.0346 18.3333 15.2776V5.55539C18.3055 4.79845 17.7013 4.19428 16.9444 4.1665ZM16.9444 15.2776H3.05551V5.55539H16.9444V15.2776ZM11.3888 13.8887V13.0207C11.3888 11.8679 9.0694 11.2846 7.91663 11.2846C6.76385 11.2846 4.4444 11.8679 4.4444 13.0207V13.8887H11.3888ZM7.91663 6.94428C7.45618 6.94428 7.01459 7.12719 6.68901 7.45278C6.36343 7.77836 6.18051 8.21995 6.18051 8.68039C6.18051 8.90838 6.22542 9.13414 6.31267 9.34477C6.39992 9.55541 6.5278 9.7468 6.68901 9.90801C7.01459 10.2336 7.45618 10.4165 7.91663 10.4165C8.14462 10.4165 8.37037 10.3716 8.58101 10.2844C8.79164 10.1971 8.98303 10.0692 9.14424 9.90801C9.30545 9.7468 9.43334 9.55541 9.52058 9.34477C9.60783 9.13414 9.65274 8.90838 9.65274 8.68039C9.65274 8.4524 9.60783 8.22665 9.52058 8.01601C9.43334 7.80538 9.30545 7.61399 9.14424 7.45278C8.98303 7.29156 8.79164 7.16368 8.58101 7.07644C8.37037 6.98919 8.14462 6.94428 7.91663 6.94428ZM11.3888 6.94428V7.63873H15.5555V6.94428H11.3888ZM11.3888 8.33317V9.02761H15.5555V8.33317H11.3888ZM11.3888 9.72206V10.4165H14.1666V9.72206H11.3888Z" fill="black"/>
</svg>
