<svg width="18" height="18" viewBox="0 0 18 18" fill="none" xmlns="http://www.w3.org/2000/svg">
<path fill-rule="evenodd" clip-rule="evenodd" d="M12.1841 9.97498C13.1182 10.6091 13.7727 11.4682 13.7727 12.6136V14.6591H15.8182C16.1932 14.6591 16.5 14.3522 16.5 13.9772V12.6136C16.5 11.1272 14.0659 10.2477 12.1841 9.97498Z" fill="white"/>
<path d="M6.95457 9.20455C8.4608 9.20455 9.68184 7.9835 9.68184 6.47727C9.68184 4.97104 8.4608 3.75 6.95457 3.75C5.44834 3.75 4.22729 4.97104 4.22729 6.47727C4.22729 7.9835 5.44834 9.20455 6.95457 9.20455Z" fill="white"/>
<path fill-rule="evenodd" clip-rule="evenodd" d="M11.0455 9.20455C12.5523 9.20455 13.7728 7.98409 13.7728 6.47727C13.7728 4.97045 12.5523 3.75 11.0455 3.75C10.725 3.75 10.425 3.81818 10.1387 3.91364C10.7046 4.61591 11.0455 5.50909 11.0455 6.47727C11.0455 7.44545 10.7046 8.33864 10.1387 9.04091C10.425 9.13636 10.725 9.20455 11.0455 9.20455Z" fill="white"/>
<path fill-rule="evenodd" clip-rule="evenodd" d="M6.95455 9.88635C5.13409 9.88635 1.5 10.8 1.5 12.6136V13.9773C1.5 14.3523 1.80682 14.6591 2.18182 14.6591H11.7273C12.1023 14.6591 12.4091 14.3523 12.4091 13.9773V12.6136C12.4091 10.8 8.775 9.88635 6.95455 9.88635Z" fill="white"/>
</svg>
