<svg width="30" height="30" viewBox="0 0 30 30" fill="none" xmlns="http://www.w3.org/2000/svg">
<path d="M28.606 11.263C28.209 10.914 27.76 10.615 27.263 10.415L27.66 10.017C28.805 10.266 29.849 9.22 29.849 7.874C29.849 6.678 29.003 5.681 27.958 5.681C26.913 5.681 26.068 6.678 26.068 7.874C26.068 8.422 26.266 8.92 26.565 9.319L26.167 9.718L25.271 3.788C25.271 2.741 24.674 1.794 23.629 1.047C22.638 0.349 21.344 0 19.95 0H9.95C8.557 0 7.263 0.349 6.269 1.046C5.273 1.794 4.677 2.791 4.677 3.837L3.781 9.717L3.284 9.27C3.582 8.871 3.781 8.373 3.781 7.825C3.781 6.629 2.936 5.632 1.891 5.632C0.846 5.631 0 6.628 0 7.824C0 9.169 1.044 10.216 2.19 9.967L2.636 10.415C1.145 11.063 0 12.409 0 13.754C0 21.279 0 20.781 0 20.88C0 20.929 0 20.98 0 21.028C0.298 23.969 2.338 26.213 4.727 26.213H5.025V29.351C5.025 29.701 5.323 29.999 5.672 29.999H9.403C9.751 29.999 10.049 29.7 10.049 29.351V26.213H20V29.351C20 29.701 20.298 30 20.646 30H24.378C24.726 30 25.024 29.701 25.024 29.352V26.214C25.124 26.214 25.173 26.214 25.273 26.214C27.612 26.214 29.652 24.02 29.95 21.18C29.95 21.129 29.95 21.129 29.95 21.08C30 20.98 30 20.881 30 20.781C30 19.834 30 13.754 30 13.754C29.9 12.857 29.453 11.96 28.606 11.263ZM28.06 6.927C28.409 6.927 28.706 7.376 28.706 7.874C28.706 8.372 28.358 8.771 28.06 8.771C27.762 8.771 27.413 8.322 27.413 7.824C27.412 7.326 27.712 6.927 28.06 6.927ZM5.921 3.887C5.921 2.491 7.761 1.296 10 1.296H20C22.188 1.296 24.08 2.492 24.08 3.887C24.08 3.987 24.029 3.588 25.074 10.265L24.178 10.664H5.273L4.975 10.414C5.971 3.538 5.921 3.937 5.921 3.887ZM1.294 7.824C1.294 7.325 1.592 6.877 1.94 6.877C2.288 6.877 2.587 7.326 2.587 7.824C2.587 8.322 2.238 8.771 1.94 8.771C1.642 8.771 1.294 8.322 1.294 7.824ZM1.294 13.754C1.294 12.807 2.488 11.561 3.98 11.312C4.23 11.511 4.578 11.76 4.627 11.76C4.727 11.81 4.826 11.86 4.925 11.86C4.975 11.86 4.029 11.86 24.577 11.86C24.677 11.86 24.776 11.81 24.876 11.76L25.821 11.212C27.412 11.412 28.656 12.707 28.656 13.704C28.656 21.029 28.656 18.986 28.656 20.482C28.059 20.98 27.362 21.279 26.567 21.428H3.383C2.636 21.328 1.891 21.029 1.294 20.482C1.294 20.482 1.294 14.751 1.294 13.754ZM8.756 28.704H6.269V26.214H8.756V28.704ZM23.682 28.704H21.194V26.214H23.682V28.704ZM25.174 24.967C23.085 24.967 6.766 24.967 4.727 24.967C3.881 24.967 3.085 24.569 2.439 23.821C2.04 23.373 1.692 22.774 1.493 22.127C1.94 22.376 2.439 22.526 2.936 22.626C3.036 22.626 3.185 22.676 3.284 22.676C28.309 22.676 26.418 22.726 26.866 22.626C27.363 22.526 27.862 22.376 28.309 22.177C27.812 23.82 26.567 24.967 25.174 24.967Z" fill="#303030"/>
<path d="M3.18411 20.631C3.58211 20.631 7.11411 20.631 7.56211 20.631C8.06011 20.631 8.35811 20.083 8.10911 19.684L6.86511 17.243C6.76511 17.044 6.56711 16.894 6.31811 16.894H3.18411C2.83611 16.894 2.53711 17.194 2.53711 17.541V20.033C2.53711 20.332 2.83611 20.631 3.18411 20.631ZM3.78111 18.14H5.87011L6.51711 19.385H3.78111V18.14Z" fill="#303030"/>
<path d="M22.4379 20.631H26.8159C27.1649 20.631 27.4619 20.332 27.4619 19.984V17.493C27.4619 17.143 27.1639 16.845 26.8159 16.845H23.6819C23.4329 16.845 23.2349 16.994 23.1349 17.195L21.8909 19.685C21.6909 20.133 21.9899 20.631 22.4379 20.631ZM24.0799 18.14H26.1689V19.385H23.4329L24.0799 18.14Z" fill="#303030"/>
<path d="M12.238 7.37502L16.667 2.99002C16.915 2.74002 16.915 2.34202 16.667 2.09302C16.418 1.84302 16.021 1.84302 15.771 2.09302L11.343 6.47802C11.094 6.72702 11.094 7.12602 11.343 7.37502C11.592 7.62502 11.99 7.62502 12.238 7.37502Z" fill="#303030"/>
<path d="M12.687 9.81691C12.936 10.0659 13.333 10.0659 13.582 9.81691L18.01 5.43091C18.259 5.18191 18.259 4.78391 18.01 4.53491C17.762 4.28491 17.364 4.28491 17.114 4.53491L12.687 8.91991C12.438 9.16891 12.438 9.56891 12.687 9.81691Z" fill="#303030"/>
<path d="M10.0001 20.083C10.0501 20.382 10.2981 20.631 10.5971 20.631C12.8361 20.631 18.6571 20.631 19.3031 20.631C19.6031 20.631 19.8511 20.382 19.9011 20.083L20.5471 15.697C20.5971 15.299 20.2981 15 19.9501 15C17.8611 15 12.0891 15 10.0001 15C9.60212 15 9.35412 15.35 9.40312 15.697L10.0001 20.083ZM18.8061 19.385H18.1101V16.246H19.2551L18.8061 19.385ZM16.8651 19.385H15.6221V16.246H16.8651V19.385ZM14.3781 19.385H13.1341V16.246H14.3781V19.385ZM11.8911 16.246V19.385H11.1951L10.6971 16.246H11.8911Z" fill="#303030"/>
</svg>
