<svg width="14" height="14" viewBox="0 0 14 14" fill="none" xmlns="http://www.w3.org/2000/svg">
<path d="M1.4 1.33333V5.35V5.33333V12V1.33333ZM2.8 8H5.25C5.355 7.74444 5.48333 7.50556 5.635 7.28333C5.78667 7.06111 5.96167 6.85556 6.16 6.66667H2.8V8ZM2.8 10.6667H5.0225C4.96417 10.4444 4.92625 10.2222 4.90875 10C4.89125 9.77778 4.89417 9.55556 4.9175 9.33333H2.8V10.6667ZM1.4 13.3333C1.015 13.3333 0.685417 13.2028 0.41125 12.9417C0.137083 12.6806 0 12.3667 0 12V1.33333C0 0.966667 0.137083 0.652778 0.41125 0.391667C0.685417 0.130556 1.015 0 1.4 0H7L11.2 4V5.66667C10.9783 5.57778 10.7508 5.50833 10.5175 5.45833C10.2842 5.40833 10.045 5.37222 9.8 5.35V4.66667H6.3V1.33333H1.4V12H5.6175C5.80417 12.2667 6.01417 12.5139 6.2475 12.7417C6.48083 12.9694 6.7375 13.1667 7.0175 13.3333H1.4ZM9.45 11.3333C9.94 11.3333 10.3542 11.1722 10.6925 10.85C11.0308 10.5278 11.2 10.1333 11.2 9.66667C11.2 9.2 11.0308 8.80556 10.6925 8.48333C10.3542 8.16111 9.94 8 9.45 8C8.96 8 8.54583 8.16111 8.2075 8.48333C7.86917 8.80556 7.7 9.2 7.7 9.66667C7.7 10.1333 7.86917 10.5278 8.2075 10.85C8.54583 11.1722 8.96 11.3333 9.45 11.3333ZM13.02 14L11.13 12.2C10.885 12.3556 10.6196 12.4722 10.3337 12.55C10.0479 12.6278 9.75333 12.6667 9.45 12.6667C8.575 12.6667 7.83125 12.375 7.21875 11.7917C6.60625 11.2083 6.3 10.5 6.3 9.66667C6.3 8.83333 6.60625 8.125 7.21875 7.54167C7.83125 6.95833 8.575 6.66667 9.45 6.66667C10.325 6.66667 11.0688 6.95833 11.6812 7.54167C12.2937 8.125 12.6 8.83333 12.6 9.66667C12.6 9.95556 12.5592 10.2361 12.4775 10.5083C12.3958 10.7806 12.2733 11.0333 12.11 11.2667L14 13.0667L13.02 14Z" fill="white"/>
</svg>
