<svg width="16" height="16" viewBox="0 0 16 16" fill="none" xmlns="http://www.w3.org/2000/svg">
<path d="M9.73474 9.38678L10.8547 7.4469C10.9267 7.32666 10.8947 7.17436 10.7907 7.08618L9.60674 6.15632C9.63074 5.97997 9.64674 5.7956 9.64674 5.61123C9.64674 5.42686 9.63074 5.24249 9.60674 5.05812L10.7907 4.12826C10.8947 4.04008 10.9267 3.88778 10.8547 3.76754L9.73474 1.82766C9.66274 1.70742 9.51874 1.65932 9.39074 1.70742L7.99875 2.26854C7.71076 2.04409 7.39876 1.85972 7.05476 1.71543L6.84677 0.232465C6.82277 0.104208 6.70277 0 6.56677 0H4.32679C4.19079 0 4.07079 0.104208 4.04679 0.240481L3.83879 1.72345C3.5028 1.86774 3.1828 2.05211 2.8948 2.27656L1.50282 1.71543C1.37482 1.66734 1.23082 1.71543 1.15882 1.83567L0.0388304 3.77555C-0.0331689 3.8958 -0.00116907 4.0481 0.10283 4.13628L1.28682 5.06614C1.26282 5.24249 1.24682 5.42686 1.24682 5.61123C1.24682 5.7956 1.26282 5.97997 1.28682 6.16433L0.10283 7.0942C-0.00116907 7.18237 -0.0331689 7.33468 0.0388304 7.45492L1.15882 9.3948C1.23082 9.51504 1.37482 9.56314 1.50282 9.51504L2.8948 8.95392C3.1828 9.17837 3.4948 9.36273 3.83879 9.50702L4.04679 10.99C4.07079 11.1182 4.19079 11.2225 4.32679 11.2225H6.56677C6.70277 11.2225 6.82277 11.1182 6.84677 10.982L7.05476 9.49901C7.39076 9.35472 7.71076 9.17035 7.99875 8.9459L9.39074 9.50702C9.51874 9.55512 9.66274 9.50702 9.73474 9.38678ZM5.44678 7.21444C4.56679 7.21444 3.84679 6.49299 3.84679 5.61123C3.84679 4.72946 4.56679 4.00802 5.44678 4.00802C6.32677 4.00802 7.04676 4.72946 7.04676 5.61123C7.04676 6.49299 6.32677 7.21444 5.44678 7.21444Z" fill="#909090"/>
<path d="M15.9347 13.3625L15.1667 12.7693C15.1827 12.6571 15.1987 12.5368 15.1987 12.4166C15.1987 12.2963 15.1907 12.1761 15.1667 12.0639L15.9267 11.4707C15.9907 11.4146 16.0147 11.3184 15.9667 11.2382L15.2467 9.99574C15.2067 9.91558 15.1107 9.89153 15.0227 9.91558L14.1347 10.2763C13.9507 10.132 13.7507 10.0118 13.5267 9.9236L13.3907 8.9777C13.3827 8.88151 13.3027 8.81738 13.2227 8.81738H11.7907C11.7027 8.81738 11.6227 8.88151 11.6147 8.96969L11.4787 9.91558C11.2627 10.0118 11.0547 10.124 10.8707 10.2683L9.98272 9.90756C9.90272 9.8755 9.80672 9.90756 9.75872 9.98772L9.03873 11.2302C8.99873 11.3104 9.00673 11.4066 9.07873 11.4627L9.83872 12.0559C9.82272 12.1681 9.81472 12.2883 9.81472 12.4086C9.81472 12.5288 9.82272 12.6491 9.83872 12.7613L9.07873 13.3545C9.01473 13.4106 8.99073 13.5068 9.03873 13.5869L9.75872 14.8294C9.79872 14.9096 9.89472 14.9336 9.98272 14.9096L10.8707 14.5489C11.0547 14.6931 11.2547 14.8134 11.4787 14.9016L11.6147 15.8475C11.6307 15.9356 11.7027 15.9998 11.7907 15.9998H13.2227C13.3107 15.9998 13.3907 15.9356 13.3987 15.8475L13.5347 14.9016C13.7507 14.8054 13.9587 14.6931 14.1347 14.5489L15.0307 14.9096C15.1107 14.9416 15.2067 14.9096 15.2547 14.8294L15.9747 13.5869C16.0227 13.5148 15.9987 13.4186 15.9347 13.3625ZM12.5027 13.4907C11.9107 13.4907 11.4227 13.0098 11.4227 12.4086C11.4227 11.8074 11.9027 11.3264 12.5027 11.3264C13.1027 11.3264 13.5827 11.8074 13.5827 12.4086C13.5827 13.0098 13.0947 13.4907 12.5027 13.4907Z" fill="#909090"/>
</svg>
