<svg width="20" height="20" viewBox="0 0 20 20" fill="none" xmlns="http://www.w3.org/2000/svg">
<path d="M15 16.3334V11.6667H13.6666V7.66668C13.6666 7.30001 13.7972 6.98612 14.0583 6.72501C14.3194 6.4639 14.6333 6.33334 15 6.33334H17.6666C18.0333 6.33334 18.3472 6.4639 18.6083 6.72501C18.8694 6.98612 19 7.30001 19 7.66668V11.6667H17.6666V16.3334H15ZM16.3333 5.66667C15.9666 5.66667 15.6527 5.53612 15.3916 5.27501C15.1305 5.01389 15 4.7 15 4.33334C15 3.96667 15.1305 3.65278 15.3916 3.39167C15.6527 3.13056 15.9666 3 16.3333 3C16.7 3 17.0139 3.13056 17.275 3.39167C17.5361 3.65278 17.6666 3.96667 17.6666 4.33334C17.6666 4.7 17.5361 5.01389 17.275 5.27501C17.0139 5.53612 16.7 5.66667 16.3333 5.66667Z" fill="black"/>
<path d="M11.6134 6.33984C11.48 5.9465 11.1067 5.6665 10.6667 5.6665H3.33334C2.89334 5.6665 2.52667 5.9465 2.38667 6.33984L1.07333 10.1198C1.02667 10.2598 1 10.4065 1 10.5598V15.3332C1 15.8865 1.44667 16.3332 2 16.3332C2.55334 16.3332 3 15.8865 3 15.3332V14.9999H11V15.3332C11 15.8799 11.4467 16.3332 12 16.3332C12.5467 16.3332 13 15.8865 13 15.3332V10.5598C13 10.4132 12.9734 10.2598 12.9267 10.1198L11.6134 6.33984ZM3.33334 12.9999C2.78 12.9999 2.33334 12.5532 2.33334 11.9999C2.33334 11.4465 2.78 10.9998 3.33334 10.9998C3.88667 10.9998 4.33334 11.4465 4.33334 11.9999C4.33334 12.5532 3.88667 12.9999 3.33334 12.9999ZM10.6667 12.9999C10.1134 12.9999 9.66669 12.5532 9.66669 11.9999C9.66669 11.4465 10.1134 10.9998 10.6667 10.9998C11.22 10.9998 11.6667 11.4465 11.6667 11.9999C11.6667 12.5532 11.22 12.9999 10.6667 12.9999ZM2.33334 9.66651L3.18 7.11984C3.27334 6.85317 3.52667 6.66651 3.81334 6.66651H10.1867C10.4734 6.66651 10.7267 6.85317 10.82 7.11984L11.6667 9.66651H2.33334Z" fill="black"/>
</svg>
