<svg width="20" height="20" viewBox="0 0 20 20" fill="none" xmlns="http://www.w3.org/2000/svg">
<path fill-rule="evenodd" clip-rule="evenodd" d="M13.3964 10.8477C14.3927 11.5452 15.0909 12.4902 15.0909 13.7502V16.0002H17.2727C17.6727 16.0002 18 15.6627 18 15.2502V13.7502C18 12.1152 15.4036 11.1477 13.3964 10.8477Z" fill="black"/>
<path d="M7.81815 10C9.4248 10 10.7272 8.65685 10.7272 7C10.7272 5.34315 9.4248 4 7.81815 4C6.2115 4 4.90906 5.34315 4.90906 7C4.90906 8.65685 6.2115 10 7.81815 10Z" fill="black"/>
<path fill-rule="evenodd" clip-rule="evenodd" d="M12.1819 10C13.7891 10 15.091 8.6575 15.091 7C15.091 5.3425 13.7891 4 12.1819 4C11.8401 4 11.5201 4.075 11.2146 4.18C11.8182 4.9525 12.1819 5.935 12.1819 7C12.1819 8.065 11.8182 9.0475 11.2146 9.82C11.5201 9.925 11.8401 10 12.1819 10Z" fill="black"/>
<path fill-rule="evenodd" clip-rule="evenodd" d="M7.81818 10.7501C5.87636 10.7501 2 11.7551 2 13.7501V15.2501C2 15.6626 2.32727 16.0001 2.72727 16.0001H12.9091C13.3091 16.0001 13.6364 15.6626 13.6364 15.2501V13.7501C13.6364 11.7551 9.76 10.7501 7.81818 10.7501Z" fill="black"/>
</svg>
