<svg width="20" height="20" viewBox="0 0 20 20" fill="none" xmlns="http://www.w3.org/2000/svg">
<path d="M2.8 15.4V2.8V13.015V11.1025V15.4ZM2.8 17.2C2.305 17.2 1.88125 17.0238 1.52875 16.6713C1.17625 16.3188 1 15.895 1 15.4V2.8C1 2.305 1.17625 1.88125 1.52875 1.52875C1.88125 1.17625 2.305 1 2.8 1H15.4C15.895 1 16.3188 1.17625 16.6713 1.52875C17.0238 1.88125 17.2 2.305 17.2 2.8V10H15.4V2.8H2.8V15.4H9.1V17.2H2.8ZM13.915 18.1L10.72 14.905L12.0025 13.645L13.915 15.5575L17.74 11.7325L19 13.015L13.915 18.1ZM5.5 10C5.755 10 5.96875 9.91375 6.14125 9.74125C6.31375 9.56875 6.4 9.355 6.4 9.1C6.4 8.845 6.31375 8.63125 6.14125 8.45875C5.96875 8.28625 5.755 8.2 5.5 8.2C5.245 8.2 5.03125 8.28625 4.85875 8.45875C4.68625 8.63125 4.6 8.845 4.6 9.1C4.6 9.355 4.68625 9.56875 4.85875 9.74125C5.03125 9.91375 5.245 10 5.5 10ZM5.5 6.4C5.755 6.4 5.96875 6.31375 6.14125 6.14125C6.31375 5.96875 6.4 5.755 6.4 5.5C6.4 5.245 6.31375 5.03125 6.14125 4.85875C5.96875 4.68625 5.755 4.6 5.5 4.6C5.245 4.6 5.03125 4.68625 4.85875 4.85875C4.68625 5.03125 4.6 5.245 4.6 5.5C4.6 5.755 4.68625 5.96875 4.85875 6.14125C5.03125 6.31375 5.245 6.4 5.5 6.4ZM8.2 10H13.6V8.2H8.2V10ZM8.2 6.4H13.6V4.6H8.2V6.4Z" fill="black"/>
</svg>
