<svg width="20" height="20" viewBox="0 0 20 20" fill="none" xmlns="http://www.w3.org/2000/svg">
<path d="M2.8 2.71429V7.87857V7.85714V16.4286V2.71429ZM4.6 11.2857H7.75C7.885 10.9571 8.05 10.65 8.245 10.3643C8.44 10.0786 8.665 9.81429 8.92 9.57143H4.6V11.2857ZM4.6 14.7143H7.4575C7.3825 14.4286 7.33375 14.1429 7.31125 13.8571C7.28875 13.5714 7.2925 13.2857 7.3225 13H4.6V14.7143ZM2.8 18.1429C2.305 18.1429 1.88125 17.975 1.52875 17.6393C1.17625 17.3036 1 16.9 1 16.4286V2.71429C1 2.24286 1.17625 1.83929 1.52875 1.50357C1.88125 1.16786 2.305 1 2.8 1H10L15.4 6.14286V8.28571C15.115 8.17143 14.8225 8.08214 14.5225 8.01786C14.2225 7.95357 13.915 7.90714 13.6 7.87857V7H9.1V2.71429H2.8V16.4286H8.2225C8.4625 16.7714 8.7325 17.0893 9.0325 17.3821C9.3325 17.675 9.6625 17.9286 10.0225 18.1429H2.8ZM13.15 15.5714C13.78 15.5714 14.3125 15.3643 14.7475 14.95C15.1825 14.5357 15.4 14.0286 15.4 13.4286C15.4 12.8286 15.1825 12.3214 14.7475 11.9071C14.3125 11.4929 13.78 11.2857 13.15 11.2857C12.52 11.2857 11.9875 11.4929 11.5525 11.9071C11.1175 12.3214 10.9 12.8286 10.9 13.4286C10.9 14.0286 11.1175 14.5357 11.5525 14.95C11.9875 15.3643 12.52 15.5714 13.15 15.5714ZM17.74 19L15.31 16.6857C14.995 16.8857 14.6538 17.0357 14.2863 17.1357C13.9188 17.2357 13.54 17.2857 13.15 17.2857C12.025 17.2857 11.0688 16.9107 10.2812 16.1607C9.49375 15.4107 9.1 14.5 9.1 13.4286C9.1 12.3571 9.49375 11.4464 10.2812 10.6964C11.0688 9.94643 12.025 9.57143 13.15 9.57143C14.275 9.57143 15.2313 9.94643 16.0188 10.6964C16.8063 11.4464 17.2 12.3571 17.2 13.4286C17.2 13.8 17.1475 14.1607 17.0425 14.5107C16.9375 14.8607 16.78 15.1857 16.57 15.4857L19 17.8L17.74 19Z" fill="black"/>
</svg>
