<svg width="18.000000" height="18.000000" viewBox="0 0 18 18" fill="none" xmlns="http://www.w3.org/2000/svg" xmlns:xlink="http://www.w3.org/1999/xlink">
	<desc>
			Created with Pixso.
	</desc>
	<defs/>
	<path id="border_color" d="M0 18L0 14.72L18 14.72L18 18L0 18ZM3.59 11.45L4.85 11.45L11.88 5.09L10.59 3.92L3.59 10.3L3.59 11.45ZM1.8 13.09L1.8 9.61L11.88 0.47C12.04 0.32 12.23 0.2 12.45 0.12C12.67 0.04 12.9 0 13.14 0C13.38 0 13.61 0.04 13.83 0.12C14.06 0.2 14.26 0.32 14.44 0.49L15.68 1.63C15.86 1.78 15.99 1.96 16.07 2.16C16.15 2.37 16.2 2.58 16.2 2.8C16.2 3 16.15 3.2 16.07 3.4C15.99 3.6 15.86 3.78 15.68 3.94L5.62 13.09L1.8 13.09Z" fill="#909090" fill-opacity="1.000000" fill-rule="nonzero"/>
</svg>
