<svg width="20" height="20" viewBox="0 0 20 20" fill="none" xmlns="http://www.w3.org/2000/svg">
<mask id="mask0_3824_3027" style="mask-type:alpha" maskUnits="userSpaceOnUse" x="0" y="0" width="24" height="24">
<rect width="24" height="24" fill="#D9D9D9"/>
</mask>
<g mask="url(#mask0_3824_3027)">
<path d="M6.33333 10.6667C6.52222 10.6667 6.68056 10.6028 6.80833 10.475C6.93611 10.3472 7 10.1889 7 10C7 9.81111 6.93611 9.65278 6.80833 9.525C6.68056 9.39722 6.52222 9.33333 6.33333 9.33333C6.14444 9.33333 5.98611 9.39722 5.85833 9.525C5.73056 9.65278 5.66667 9.81111 5.66667 10C5.66667 10.1889 5.73056 10.3472 5.85833 10.475C5.98611 10.6028 6.14444 10.6667 6.33333 10.6667ZM3.66667 16V14.6667L7.66667 14V6.58333C7.66667 6.41667 7.61667 6.26667 7.51667 6.13333C7.41667 6 7.28889 5.92222 7.13333 5.9L3.66667 5.33333V4L7.33333 4.6C7.82222 4.68889 8.22222 4.91667 8.53333 5.28333C8.84444 5.65 9 6.07778 9 6.56667V15.1L3.66667 16ZM1 16V14.6667H2.33333V5.33333C2.33333 4.95556 2.46389 4.63889 2.725 4.38333C2.98611 4.12778 3.3 4 3.66667 4H10.3333C10.7111 4 11.0278 4.12778 11.2833 4.38333C11.5389 4.63889 11.6667 4.95556 11.6667 5.33333V14.6667H13V16H1ZM3.66667 14.6667H10.3333V5.33333H3.66667V14.6667Z" fill="#909090"/>
<path d="M14.4 17V12.1H13V7.9C13 7.515 13.1371 7.18542 13.4112 6.91125C13.6854 6.63708 14.015 6.5 14.4 6.5H17.2C17.585 6.5 17.9146 6.63708 18.1887 6.91125C18.4629 7.18542 18.6 7.515 18.6 7.9V12.1H17.2V17H14.4ZM15.8 5.8C15.415 5.8 15.0854 5.66292 14.8112 5.38875C14.5371 5.11458 14.4 4.785 14.4 4.4C14.4 4.015 14.5371 3.68542 14.8112 3.41125C15.0854 3.13708 15.415 3 15.8 3C16.185 3 16.5146 3.13708 16.7887 3.41125C17.0629 3.68542 17.2 4.015 17.2 4.4C17.2 4.785 17.0629 5.11458 16.7887 5.38875C16.5146 5.66292 16.185 5.8 15.8 5.8Z" fill="#909090"/>
</g>
</svg>
