<svg width="20.000000" height="20.000000" viewBox="0 0 20 20" fill="none" xmlns="http://www.w3.org/2000/svg" xmlns:xlink="http://www.w3.org/1999/xlink">
	<desc>
			Created with Pixso.
	</desc>
	<defs/>
	<path id="Vector" d="M15 5.83L11.66 5.83C10.75 5.83 10 6.58 10 7.49L10 12.49L11.66 12.49L11.66 18.33L15 18.33L15 12.49L16.66 12.49L16.66 7.49C16.66 6.58 15.91 5.83 15 5.83Z" fill="#909090" fill-opacity="1.000000" fill-rule="nonzero"/>
	<path id="Vector" d="M15 3.33C15 4.25 14.25 5 13.33 5C12.41 5 11.66 4.25 11.66 3.33C11.66 2.41 12.41 1.66 13.33 1.66C14.25 1.66 15 2.41 15 3.33Z" fill="#909090" fill-opacity="1.000000" fill-rule="evenodd"/>
	<path id="Vector" d="M7.5 5.83L4.16 5.83C3.25 5.83 2.5 6.58 2.5 7.49L2.5 12.49L4.16 12.49L4.16 18.33L7.5 18.33L7.5 12.49L9.16 12.49L9.16 7.49C9.16 6.58 8.41 5.83 7.5 5.83Z" fill="#909090" fill-opacity="1.000000" fill-rule="nonzero"/>
	<path id="Vector" d="M7.5 3.33C7.5 4.25 6.75 5 5.83 5C4.91 5 4.16 4.25 4.16 3.33C4.16 2.41 4.91 1.66 5.83 1.66C6.75 1.66 7.5 2.41 7.5 3.33Z" fill="#909090" fill-opacity="1.000000" fill-rule="evenodd"/>
</svg>
