<svg width="16" height="16" viewBox="0 0 16 16" fill="none" xmlns="http://www.w3.org/2000/svg">
<path d="M1.61245 12.9311V2.31024V10.9207V9.30865V12.9311ZM1.61245 14.4484C1.17332 14.4484 0.797405 14.2998 0.484693 14.0027C0.171981 13.7056 0.015625 13.3484 0.015625 12.9311V2.31024C0.015625 1.89299 0.171981 1.5358 0.484693 1.23867C0.797405 0.941535 1.17332 0.792969 1.61245 0.792969H12.7902C13.2294 0.792969 13.6053 0.941535 13.918 1.23867C14.2307 1.5358 14.3871 1.89299 14.3871 2.31024V8.37932H12.7902V2.31024H1.61245V12.9311H7.20134V14.4484H1.61245ZM11.4729 15.207L8.63849 12.5139L9.77623 11.4518L11.4729 13.0639L14.8661 9.83969L15.9839 10.9207L11.4729 15.207ZM4.00769 8.37932C4.23391 8.37932 4.42353 8.30662 4.57656 8.16121C4.72959 8.01581 4.8061 7.83563 4.8061 7.62068C4.8061 7.40574 4.72959 7.22556 4.57656 7.08016C4.42353 6.93475 4.23391 6.86205 4.00769 6.86205C3.78147 6.86205 3.59185 6.93475 3.43882 7.08016C3.28579 7.22556 3.20928 7.40574 3.20928 7.62068C3.20928 7.83563 3.28579 8.01581 3.43882 8.16121C3.59185 8.30662 3.78147 8.37932 4.00769 8.37932ZM4.00769 5.34478C4.23391 5.34478 4.42353 5.27208 4.57656 5.12667C4.72959 4.98127 4.8061 4.80109 4.8061 4.58614C4.8061 4.3712 4.72959 4.19102 4.57656 4.04562C4.42353 3.90021 4.23391 3.82751 4.00769 3.82751C3.78147 3.82751 3.59185 3.90021 3.43882 4.04562C3.28579 4.19102 3.20928 4.3712 3.20928 4.58614C3.20928 4.80109 3.28579 4.98127 3.43882 5.12667C3.59185 5.27208 3.78147 5.34478 4.00769 5.34478ZM6.40293 8.37932H11.1934V6.86205H6.40293V8.37932ZM6.40293 5.34478H11.1934V3.82751H6.40293V5.34478Z" fill="white"/>
</svg>
