<svg width="20" height="20" viewBox="0 0 20 20" fill="none" xmlns="http://www.w3.org/2000/svg">
<path d="M15 5.83301H11.6667C10.75 5.83301 10 6.58301 10 7.49967V12.4997H11.6667V18.333H15V12.4997H16.6667V7.49967C16.6667 6.58301 15.9167 5.83301 15 5.83301Z" fill="black"/>
<path d="M13.3333 4.99984C14.2538 4.99984 15 4.25365 15 3.33317C15 2.4127 14.2538 1.6665 13.3333 1.6665C12.4128 1.6665 11.6666 2.4127 11.6666 3.33317C11.6666 4.25365 12.4128 4.99984 13.3333 4.99984Z" fill="black"/>
<path d="M7.5 5.83301H4.16667C3.25 5.83301 2.5 6.58301 2.5 7.49967V12.4997H4.16667V18.333H7.5V12.4997H9.16667V7.49967C9.16667 6.58301 8.41667 5.83301 7.5 5.83301Z" fill="black"/>
<path d="M5.83329 4.99984C6.75377 4.99984 7.49996 4.25365 7.49996 3.33317C7.49996 2.4127 6.75377 1.6665 5.83329 1.6665C4.91282 1.6665 4.16663 2.4127 4.16663 3.33317C4.16663 4.25365 4.91282 4.99984 5.83329 4.99984Z" fill="black"/>
</svg>
