<svg width="20" height="20" viewBox="0 0 20 20" fill="none" xmlns="http://www.w3.org/2000/svg">
<mask id="mask0_3077_8338" style="mask-type:alpha" maskUnits="userSpaceOnUse" x="0" y="0" width="20" height="20">
<rect width="20" height="20" fill="#D9D9D9"/>
</mask>
<g mask="url(#mask0_3077_8338)">
<path d="M6.05556 9.11111V17.5H5.27778V9.11111V8.61111H4.77778C4.42255 8.61111 4.1309 8.49046 3.87578 8.23534L3.52222 8.58889L3.87578 8.23533C3.62065 7.98021 3.5 7.68856 3.5 7.33333V2.62222C3.5 2.56813 3.51271 2.54995 3.53133 2.53133C3.54995 2.51271 3.56813 2.5 3.62222 2.5C3.67632 2.5 3.69449 2.51271 3.71311 2.53133C3.73173 2.54995 3.74444 2.56813 3.74444 2.62222V5.55556V6.05556H4.24444H5.04444H5.54444V5.55556V2.62222C5.54444 2.56813 5.55715 2.54995 5.57578 2.53133C5.5944 2.51271 5.61257 2.5 5.66667 2.5C5.72076 2.5 5.73894 2.51271 5.75756 2.53133C5.77618 2.54995 5.78889 2.56813 5.78889 2.62222V5.55556V6.05556H6.28889H7.08889H7.58889V5.55556V2.62222C7.58889 2.56813 7.6016 2.54995 7.62022 2.53133C7.63884 2.51271 7.65701 2.5 7.71111 2.5C7.76521 2.5 7.78338 2.51271 7.802 2.53133C7.82062 2.54995 7.83333 2.56813 7.83333 2.62222V7.33333C7.83333 7.68856 7.71269 7.98021 7.45756 8.23533C7.20243 8.49046 6.91078 8.61111 6.55556 8.61111H6.05556V9.11111ZM14.0556 13.5111V17.5H13.2778V9.02222V8.70652L12.9927 8.57079C12.478 8.32566 12.1117 7.95044 11.8787 7.42927C11.6262 6.86447 11.5 6.27111 11.5 5.64444C11.5 4.79895 11.71 4.05089 12.1242 3.38684L11.7 3.12222L12.1242 3.38684C12.5045 2.77726 13.0038 2.5 13.6667 2.5C14.3295 2.5 14.8289 2.77726 15.2091 3.38684C15.6233 4.05089 15.8333 4.79895 15.8333 5.64444C15.8333 6.27111 15.7071 6.86447 15.4546 7.42927C15.2217 7.95044 14.8554 8.32566 14.3406 8.57079L14.0556 8.70652V9.02222V13.5111Z" fill="black" stroke="black"/>
</g>
</svg>
