<svg width="20.000000" height="20.000000" viewBox="0 0 20 20" fill="none" xmlns="http://www.w3.org/2000/svg" xmlns:xlink="http://www.w3.org/1999/xlink"> 
	<path id="Vector" d="M13.39 10.84C14.39 11.54 15.09 12.49 15.09 13.75L15.09 16L17.27 16C17.67 16 18 15.66 18 15.25L18 13.75C18 12.11 15.4 11.14 13.39 10.84Z" fill="#909090" fill-opacity="1.000000" fill-rule="evenodd"/>
	<path id="Vector" d="M10.72 7C10.72 8.65 9.42 10 7.81 10C6.21 10 4.9 8.65 4.9 7C4.9 5.34 6.21 4 7.81 4C9.42 4 10.72 5.34 10.72 7Z" fill="#909090" fill-opacity="1.000000" fill-rule="evenodd"/>
	<path id="Vector" d="M12.18 10C13.78 10 15.09 8.65 15.09 7C15.09 5.34 13.78 4 12.18 4C11.84 4 11.52 4.07 11.21 4.18C11.81 4.95 12.18 5.93 12.18 7C12.18 8.06 11.81 9.04 11.21 9.81C11.52 9.92 11.84 10 12.18 10Z" fill="#909090" fill-opacity="1.000000" fill-rule="evenodd"/>
	<path id="Vector" d="M7.81 10.75C5.87 10.75 2 11.75 2 13.75L2 15.25C2 15.66 2.32 16 2.72 16L12.9 16C13.3 16 13.63 15.66 13.63 15.25L13.63 13.75C13.63 11.75 9.75 10.75 7.81 10.75Z" fill="#909090" fill-opacity="1.000000" fill-rule="evenodd"/>
</svg>
