<svg width="20.000000" height="20.000000" viewBox="0 0 20 20" fill="none" xmlns="http://www.w3.org/2000/svg" xmlns:xlink="http://www.w3.org/1999/xlink">
	<desc>
			Created with Pixso.
	</desc>
	<defs/>
	<mask id="mask3354_2260" mask-type="alpha" maskUnits="userSpaceOnUse" x="0.000000" y="0.000000" width="20.000000" height="20.000000">
		<rect id="Bounding box" width="20.000000" height="20.000000" fill="#D9D9D9" fill-opacity="1.000000"/>
	</mask>
	<g mask="url(#mask3354_2260)">
		<path id="flatware" d="M4.77 18L4.77 9.11C4.28 9.11 3.87 8.93 3.52 8.58C3.17 8.24 3 7.82 3 7.33L3 2.62C3 2.44 3.05 2.29 3.17 2.17C3.29 2.05 3.44 2 3.62 2C3.8 2 3.94 2.05 4.06 2.17C4.18 2.29 4.24 2.44 4.24 2.62L4.24 5.55L5.04 5.55L5.04 2.62C5.04 2.44 5.1 2.29 5.22 2.17C5.34 2.05 5.48 2 5.66 2C5.84 2 5.99 2.05 6.11 2.17C6.22 2.29 6.28 2.44 6.28 2.62L6.28 5.55L7.08 5.55L7.08 2.62C7.08 2.44 7.14 2.29 7.26 2.17C7.38 2.05 7.53 2 7.71 2C7.88 2 8.03 2.05 8.15 2.17C8.27 2.29 8.33 2.44 8.33 2.62L8.33 7.33C8.33 7.82 8.15 8.24 7.81 8.58C7.46 8.93 7.04 9.11 6.55 9.11L6.55 18L4.77 18ZM12.77 18L12.77 9.02C12.15 8.72 11.7 8.26 11.42 7.63C11.14 7 11 6.34 11 5.64C11 4.71 11.23 3.87 11.7 3.12C12.16 2.37 12.82 2 13.66 2C14.51 2 15.16 2.37 15.63 3.12C16.1 3.87 16.33 4.71 16.33 5.64C16.33 6.34 16.19 7 15.91 7.63C15.62 8.26 15.17 8.72 14.55 9.02L14.55 13.51L14.55 18L12.77 18Z" fill="#909090" fill-opacity="1.000000" fill-rule="nonzero"/>
		<path id="flatware" d="M4.77 10.11L4.77 18L6.55 18L6.55 9.11Q6.91 9.11 7.22 8.98Q7.54 8.85 7.81 8.58Q8.07 8.32 8.2 7.99Q8.33 7.69 8.33 7.33L8.33 2.62Q8.33 2.46 8.26 2.33Q8.22 2.24 8.15 2.17Q8.08 2.1 7.99 2.06Q7.87 2 7.71 2Q7.55 2 7.42 2.06L7.42 2.06Q7.33 2.1 7.26 2.17Q7.25 2.19 7.23 2.2Q7.18 2.26 7.15 2.33Q7.08 2.46 7.08 2.62L7.08 5.55L6.28 5.55L6.28 2.62Q6.28 2.46 6.22 2.33Q6.19 2.26 6.13 2.2Q6.12 2.19 6.11 2.17Q6.04 2.1 5.95 2.06Q5.82 2 5.66 2Q5.5 2 5.37 2.06Q5.29 2.1 5.22 2.17Q5.2 2.19 5.19 2.2Q5.14 2.26 5.1 2.33Q5.04 2.46 5.04 2.62L5.04 5.55L4.24 5.55L4.24 4.55L4.24 2.62Q4.24 2.46 4.18 2.33Q4.14 2.26 4.09 2.2Q4.08 2.19 4.06 2.17Q3.99 2.1 3.91 2.06Q3.78 2 3.62 2Q3.46 2 3.33 2.06Q3.24 2.1 3.17 2.17Q3.1 2.24 3.06 2.33Q3 2.46 3 2.62L3 7.33Q3 7.69 3.12 7.99Q3.25 8.32 3.52 8.58Q3.78 8.85 4.11 8.98Q4.41 9.11 4.77 9.11L4.77 10.11ZM5.77 8.11L6.55 8.11Q6.72 8.11 6.85 8.05Q6.98 8 7.1 7.88Q7.22 7.76 7.27 7.62Q7.33 7.5 7.33 7.33L7.33 6.55L4 6.55L4 7.33Q4 7.5 4.05 7.62Q4.1 7.76 4.22 7.88Q4.35 8 4.48 8.05Q4.61 8.11 4.77 8.11L5.77 8.11ZM14.55 9.02C15.17 8.72 15.62 8.26 15.91 7.63C16.19 7 16.33 6.34 16.33 5.64Q16.33 4.68 16 3.85L16 3.85Q15.85 3.47 15.63 3.12Q15.25 2.5 14.7 2.23Q14.24 2 13.66 2Q13.09 2 12.63 2.23Q12.08 2.5 11.7 3.12Q11.48 3.47 11.32 3.85Q11 4.68 11 5.64Q11 6.22 11.12 6.77Q11.23 7.21 11.42 7.63C11.7 8.26 12.15 8.72 12.77 9.02L12.77 18L14.55 18L14.55 9.02ZM13.66 8.33L14.12 8.11Q14.42 7.97 14.64 7.75Q14.86 7.53 14.99 7.22Q15.14 6.9 15.22 6.56Q15.33 6.11 15.33 5.64Q15.33 4.82 15.03 4.13Q14.93 3.88 14.78 3.65Q14.56 3.3 14.29 3.14Q14.03 3 13.66 3Q13.29 3 13.03 3.14Q12.76 3.3 12.54 3.65Q12.4 3.88 12.29 4.13Q12 4.82 12 5.64Q12 6.11 12.1 6.56Q12.19 6.9 12.33 7.22Q12.47 7.53 12.69 7.75Q12.9 7.97 13.2 8.11L13.66 8.33Z" fill="#909090" fill-opacity="1.000000" fill-rule="evenodd"/>
	</g>
</svg>
