<svg width="20" height="20" viewBox="0 0 20 20" fill="none" xmlns="http://www.w3.org/2000/svg">
<path d="M11.7347 11.3868L12.8547 9.4469C12.9267 9.32666 12.8947 9.17436 12.7907 9.08618L11.6067 8.15632C11.6307 7.97997 11.6467 7.7956 11.6467 7.61123C11.6467 7.42686 11.6307 7.24249 11.6067 7.05812L12.7907 6.12826C12.8947 6.04008 12.9267 5.88778 12.8547 5.76754L11.7347 3.82766C11.6627 3.70742 11.5187 3.65932 11.3907 3.70742L9.99875 4.26854C9.71076 4.04409 9.39876 3.85972 9.05476 3.71543L8.84677 2.23247C8.82277 2.10421 8.70277 2 8.56677 2H6.32679C6.19079 2 6.07079 2.10421 6.04679 2.24048L5.83879 3.72345C5.5028 3.86774 5.1828 4.05211 4.8948 4.27656L3.50282 3.71543C3.37482 3.66734 3.23082 3.71543 3.15882 3.83567L2.03883 5.77555C1.96683 5.8958 1.99883 6.0481 2.10283 6.13628L3.28682 7.06614C3.26282 7.24249 3.24682 7.42686 3.24682 7.61123C3.24682 7.7956 3.26282 7.97997 3.28682 8.16433L2.10283 9.0942C1.99883 9.18237 1.96683 9.33468 2.03883 9.45492L3.15882 11.3948C3.23082 11.515 3.37482 11.5631 3.50282 11.515L4.8948 10.9539C5.1828 11.1784 5.4948 11.3627 5.83879 11.507L6.04679 12.99C6.07079 13.1182 6.19079 13.2225 6.32679 13.2225H8.56677C8.70277 13.2225 8.82277 13.1182 8.84677 12.982L9.05476 11.499C9.39076 11.3547 9.71076 11.1703 9.99875 10.9459L11.3907 11.507C11.5187 11.5551 11.6627 11.507 11.7347 11.3868ZM7.44678 9.21444C6.56679 9.21444 5.84679 8.49299 5.84679 7.61123C5.84679 6.72946 6.56679 6.00802 7.44678 6.00802C8.32677 6.00802 9.04676 6.72946 9.04676 7.61123C9.04676 8.49299 8.32677 9.21444 7.44678 9.21444Z" fill="white"/>
<path d="M17.9347 15.3625L17.1667 14.7693C17.1827 14.6571 17.1987 14.5368 17.1987 14.4166C17.1987 14.2963 17.1907 14.1761 17.1667 14.0639L17.9267 13.4707C17.9907 13.4146 18.0147 13.3184 17.9667 13.2382L17.2467 11.9957C17.2067 11.9156 17.1107 11.8915 17.0227 11.9156L16.1347 12.2763C15.9507 12.132 15.7507 12.0118 15.5267 11.9236L15.3907 10.9777C15.3827 10.8815 15.3027 10.8174 15.2227 10.8174H13.7907C13.7027 10.8174 13.6227 10.8815 13.6147 10.9697L13.4787 11.9156C13.2627 12.0118 13.0547 12.124 12.8707 12.2683L11.9827 11.9076C11.9027 11.8755 11.8067 11.9076 11.7587 11.9877L11.0387 13.2302C10.9987 13.3104 11.0067 13.4066 11.0787 13.4627L11.8387 14.0559C11.8227 14.1681 11.8147 14.2883 11.8147 14.4086C11.8147 14.5288 11.8227 14.6491 11.8387 14.7613L11.0787 15.3545C11.0147 15.4106 10.9907 15.5068 11.0387 15.5869L11.7587 16.8294C11.7987 16.9096 11.8947 16.9336 11.9827 16.9096L12.8707 16.5489C13.0547 16.6931 13.2547 16.8134 13.4787 16.9016L13.6147 17.8475C13.6307 17.9356 13.7027 17.9998 13.7907 17.9998H15.2227C15.3107 17.9998 15.3907 17.9356 15.3987 17.8475L15.5347 16.9016C15.7507 16.8054 15.9587 16.6931 16.1347 16.5489L17.0307 16.9096C17.1107 16.9416 17.2067 16.9096 17.2547 16.8294L17.9747 15.5869C18.0227 15.5148 17.9987 15.4186 17.9347 15.3625ZM14.5027 15.4907C13.9107 15.4907 13.4227 15.0098 13.4227 14.4086C13.4227 13.8074 13.9027 13.3264 14.5027 13.3264C15.1027 13.3264 15.5827 13.8074 15.5827 14.4086C15.5827 15.0098 15.0947 15.4907 14.5027 15.4907Z" fill="white"/>
</svg>
