<svg width="20.000000" height="20.000000" viewBox="0 0 20 20" fill="none" xmlns="http://www.w3.org/2000/svg" xmlns:xlink="http://www.w3.org/1999/xlink"> 
	<rect id="icon9_card" rx="4.500000" width="19.000000" height="19.000000" transform="translate(0.500000 0.500000)" fill="#FFFFFF" fill-opacity="0"/>
	<path id="Vector" d="M16.94 4.16L3.05 4.16C2.29 4.19 1.69 4.79 1.66 5.55L1.66 15.27C1.69 16.03 2.29 16.63 3.05 16.66L16.94 16.66C17.7 16.63 18.3 16.03 18.33 15.27L18.33 5.55C18.3 4.79 17.7 4.19 16.94 4.16ZM16.94 15.27L3.05 15.27L3.05 5.55L16.94 5.55L16.94 15.27ZM11.38 13.88L11.38 13.02C11.38 11.86 9.06 11.28 7.91 11.28C6.76 11.28 4.44 11.86 4.44 13.02L4.44 13.88L11.38 13.88ZM7.91 6.94C7.45 6.94 7.01 7.12 6.68 7.45C6.36 7.77 6.18 8.21 6.18 8.68C6.18 8.9 6.22 9.13 6.31 9.34C6.39 9.55 6.52 9.74 6.68 9.9C7.01 10.23 7.45 10.41 7.91 10.41C8.14 10.41 8.37 10.37 8.58 10.28C8.79 10.19 8.98 10.06 9.14 9.9C9.3 9.74 9.43 9.55 9.52 9.34C9.6 9.13 9.65 8.9 9.65 8.68C9.65 8.45 9.6 8.22 9.52 8.01C9.43 7.8 9.3 7.61 9.14 7.45C8.98 7.29 8.79 7.16 8.58 7.07C8.37 6.98 8.14 6.94 7.91 6.94ZM11.38 6.94L11.38 7.63L15.55 7.63L15.55 6.94L11.38 6.94ZM11.38 8.33L11.38 9.02L15.55 9.02L15.55 8.33L11.38 8.33ZM11.38 9.72L11.38 10.41L14.16 10.41L14.16 9.72L11.38 9.72Z" fill="#909090" fill-opacity="1.000000" fill-rule="nonzero"/>
</svg>
