<svg width="20" height="20" viewBox="0 0 20 20" fill="none" xmlns="http://www.w3.org/2000/svg">
<path d="M16.9445 4.1665H3.05564C2.29869 4.19428 1.69453 4.79845 1.66675 5.55539V15.2776C1.69453 16.0346 2.29869 16.6387 3.05564 16.6665H16.9445C17.7015 16.6387 18.3056 16.0346 18.3334 15.2776V5.55539C18.3056 4.79845 17.7015 4.19428 16.9445 4.1665ZM16.9445 15.2776H3.05564V5.55539H16.9445V15.2776ZM11.389 13.8887V13.0207C11.389 11.8679 9.06953 11.2846 7.91675 11.2846C6.76397 11.2846 4.44453 11.8679 4.44453 13.0207V13.8887H11.389ZM7.91675 6.94428C7.4563 6.94428 7.01472 7.12719 6.68913 7.45278C6.36355 7.77836 6.18064 8.21995 6.18064 8.68039C6.18064 8.90838 6.22554 9.13414 6.31279 9.34477C6.40004 9.55541 6.52792 9.7468 6.68913 9.90801C7.01472 10.2336 7.4563 10.4165 7.91675 10.4165C8.14474 10.4165 8.37049 10.3716 8.58113 10.2844C8.79176 10.1971 8.98315 10.0692 9.14436 9.90801C9.30558 9.7468 9.43346 9.55541 9.52071 9.34477C9.60795 9.13414 9.65286 8.90838 9.65286 8.68039C9.65286 8.4524 9.60795 8.22665 9.52071 8.01601C9.43346 7.80538 9.30558 7.61399 9.14436 7.45278C8.98315 7.29156 8.79176 7.16368 8.58113 7.07644C8.37049 6.98919 8.14474 6.94428 7.91675 6.94428ZM11.389 6.94428V7.63873H15.5556V6.94428H11.389ZM11.389 8.33317V9.02761H15.5556V8.33317H11.389ZM11.389 9.72206V10.4165H14.1667V9.72206H11.389Z" fill="white"/>
</svg>
