<svg width="20" height="20" viewBox="0 0 20 20" fill="none" xmlns="http://www.w3.org/2000/svg">
<path d="M8.4 17.48V12.92L9.52 9.72C9.58667 9.57333 9.6832 9.45013 9.8096 9.3504C9.93653 9.25013 10.0933 9.2 10.28 9.2H16.12C16.3067 9.2 16.4667 9.25013 16.6 9.3504C16.7333 9.45013 16.8267 9.57333 16.88 9.72L18 12.92V17.48C18 17.6267 17.9499 17.7499 17.8496 17.8496C17.7499 17.9499 17.6267 18 17.48 18H16.92C16.7733 18 16.6501 17.9499 16.5504 17.8496C16.4501 17.7499 16.4 17.6267 16.4 17.48V16.8H10V17.48C10 17.6267 9.94987 17.7499 9.8496 17.8496C9.74987 17.9499 9.62667 18 9.48 18H8.92C8.77333 18 8.65013 17.9499 8.5504 17.8496C8.45013 17.7499 8.4 17.6267 8.4 17.48ZM10 12H16.4L15.84 10.4H10.56L10 12ZM10.8 15.2C11.0267 15.2 11.2168 15.1232 11.3704 14.9696C11.5235 14.8165 11.6 14.6267 11.6 14.4C11.6 14.1733 11.5235 13.9835 11.3704 13.8304C11.2168 13.6768 11.0267 13.6 10.8 13.6C10.5733 13.6 10.3835 13.6768 10.2304 13.8304C10.0768 13.9835 10 14.1733 10 14.4C10 14.6267 10.0768 14.8165 10.2304 14.9696C10.3835 15.1232 10.5733 15.2 10.8 15.2ZM15.6 15.2C15.8267 15.2 16.0165 15.1232 16.1696 14.9696C16.3232 14.8165 16.4 14.6267 16.4 14.4C16.4 14.1733 16.3232 13.9835 16.1696 13.8304C16.0165 13.6768 15.8267 13.6 15.6 13.6C15.3733 13.6 15.1835 13.6768 15.0304 13.8304C14.8768 13.9835 14.8 14.1733 14.8 14.4C14.8 14.6267 14.8768 14.8165 15.0304 14.9696C15.1835 15.1232 15.3733 15.2 15.6 15.2ZM5.2 11.6V10H6.8V11.6H5.2ZM9.2 6.8V5.2H10.8V6.8H9.2ZM5.2 14.8V13.2H6.8V14.8H5.2ZM5.2 18V16.4H6.8V18H5.2ZM2 18V6.8H6V2H14V7.6H12.4V3.6H7.6V8.4H3.6V18H2ZM9.6 15.6H16.8V13.2H9.6V15.6Z" fill="black"/>
</svg>
