<svg width="30" height="30" viewBox="0 0 30 30" fill="none" xmlns="http://www.w3.org/2000/svg">
<g clip-path="url(#clip0_3325_1729)">
<path d="M16.945 30H13.053C12.792 30 12.581 29.789 12.581 29.528V26.372C11.18 26.078 9.865 25.535 8.662 24.751L6.435 26.979C6.251 27.163 5.953 27.165 5.768 26.979L3.012 24.232C2.924 24.144 2.874 24.024 2.874 23.898C2.874 23.774 2.923 23.653 3.012 23.565L5.25 21.33C4.476 20.141 3.921 18.802 3.629 17.418H0.472C0.211 17.418 0 17.207 0 16.946V13.054C0 12.793 0.211 12.582 0.472 12.582H3.628C3.921 11.182 4.465 9.866 5.25 8.664L3.014 6.437C2.926 6.348 2.876 6.228 2.876 6.103C2.876 5.978 2.925 5.858 3.014 5.769L5.77 3.015C5.859 2.926 5.978 2.877 6.103 2.877C6.228 2.877 6.348 2.927 6.436 3.016L8.664 5.25C9.866 4.467 11.18 3.922 12.582 3.624V0.472C12.582 0.211 12.793 0 13.054 0H16.946C17.208 0 17.419 0.211 17.419 0.472V3.624C18.806 3.922 20.144 4.478 21.331 5.25L23.565 3.015C23.655 2.927 23.774 2.877 23.899 2.877C24.024 2.877 24.145 2.927 24.233 3.016L26.98 5.77C27.07 5.859 27.119 5.978 27.119 6.103C27.119 6.228 27.068 6.348 26.98 6.437L24.746 8.666C25.529 9.865 26.074 11.181 26.373 12.584H29.527C29.789 12.584 30 12.795 30 13.056V16.948C30 17.209 29.789 17.42 29.527 17.42H26.371C26.074 18.807 25.517 20.146 24.746 21.332L26.98 23.566C27.068 23.654 27.119 23.774 27.119 23.899C27.119 24.025 27.068 24.144 26.98 24.233L24.232 26.98C24.048 27.165 23.75 27.165 23.566 26.98L21.33 24.752C20.142 25.525 18.803 26.079 17.418 26.372V29.529C17.418 29.789 17.207 30 16.945 30ZM13.525 29.057H16.475V25.983C16.475 25.754 16.639 25.557 16.866 25.518C18.386 25.252 19.854 24.644 21.118 23.757C21.304 23.626 21.559 23.647 21.722 23.81L23.9 25.98L25.982 23.898L23.806 21.723C23.644 21.561 23.62 21.306 23.753 21.119C24.638 19.856 25.249 18.385 25.521 16.864C25.562 16.638 25.757 16.474 25.986 16.474H29.058V13.527H25.986C25.757 13.527 25.562 13.363 25.521 13.138C25.246 11.593 24.652 10.159 23.753 8.877C23.62 8.689 23.644 8.434 23.806 8.273L25.982 6.102L23.9 4.016L21.722 6.193C21.56 6.354 21.304 6.377 21.118 6.246C19.856 5.36 18.386 4.749 16.864 4.477C16.639 4.437 16.475 4.242 16.475 4.013V0.943H13.525V4.012C13.525 4.241 13.361 4.436 13.136 4.476C11.593 4.75 10.159 5.345 8.875 6.245C8.688 6.376 8.432 6.354 8.271 6.191L6.102 4.016L4.015 6.103L6.191 8.273C6.353 8.434 6.376 8.69 6.244 8.877C5.343 10.162 4.75 11.595 4.482 13.136C4.442 13.362 4.246 13.527 4.017 13.527H0.943V16.474H4.018C4.247 16.474 4.443 16.639 4.482 16.866C4.747 18.383 5.356 19.853 6.244 21.119C6.375 21.307 6.353 21.561 6.191 21.723L4.014 23.898L6.101 25.979L8.27 23.81C8.433 23.649 8.687 23.625 8.874 23.757C10.16 24.657 11.593 25.249 13.133 25.518C13.359 25.557 13.524 25.753 13.524 25.983L13.525 29.057Z" fill="black"/>
<path d="M15.0011 23.5771C10.2711 23.5771 6.42212 19.7291 6.42212 15.0001C6.42212 10.2711 10.2711 6.4231 15.0011 6.4231C19.7301 6.4231 23.5781 10.2711 23.5781 15.0001C23.5781 19.7291 19.7301 23.5771 15.0011 23.5771ZM15.0011 7.3661C10.7911 7.3661 7.36512 10.7901 7.36512 15.0001C7.36512 19.2101 10.7911 22.6341 15.0011 22.6341C19.2091 22.6341 22.6351 19.2101 22.6351 15.0001C22.6351 10.7901 19.2091 7.3661 15.0011 7.3661Z" fill="black"/>
<path d="M17.4879 20.417H12.6129C11.5759 20.417 10.7319 19.574 10.7319 18.54V13.808C10.7319 13.547 10.9429 13.335 11.2029 13.335H18.7899C19.0519 13.335 19.2629 13.547 19.2629 13.808V18.635C19.2639 19.618 18.4669 20.417 17.4879 20.417ZM11.6759 14.279V18.54C11.6759 19.055 12.0969 19.474 12.6139 19.474H17.4889C17.9479 19.474 18.3209 19.098 18.3209 18.635V14.28L11.6759 14.279Z" fill="black"/>
<path d="M17.7439 14.2789H12.2579C11.9979 14.2789 11.7859 14.0679 11.7859 13.8069V12.7969C11.7859 11.0219 13.2279 9.57593 15.0009 9.57593C16.7729 9.57593 18.2149 11.0209 18.2149 12.7969V13.8069C18.2149 14.0679 18.0039 14.2789 17.7439 14.2789ZM12.7289 13.3349H17.2729V12.7979C17.2729 11.5419 16.2519 10.5219 15.0009 10.5219C13.7489 10.5219 12.7299 11.5429 12.7299 12.7979L12.7289 13.3349Z" fill="black"/>
<path d="M15.0011 18.1831C14.2801 18.1831 13.6931 17.5951 13.6931 16.8731C13.6931 16.1551 14.2801 15.5701 15.0011 15.5701C15.7191 15.5701 16.3031 16.1551 16.3031 16.8731C16.3031 17.5951 15.7191 18.1831 15.0011 18.1831ZM15.0011 16.5151C14.8001 16.5151 14.6361 16.6751 14.6361 16.8731C14.6361 17.0781 14.7971 17.2381 15.0011 17.2381C15.1991 17.2381 15.3601 17.0751 15.3601 16.8731C15.3601 16.6791 15.1961 16.5151 15.0011 16.5151Z" fill="black"/>
</g>
<defs>
<clipPath id="clip0_3325_1729">
<rect width="30" height="30" fill="white"/>
</clipPath>
</defs>
</svg>
