<svg width="20" height="20" viewBox="0 0 20 20" fill="none" xmlns="http://www.w3.org/2000/svg">
<path d="M1 19V15.7273H19V19H1ZM4.6 12.4545H5.86L12.88 6.09318L11.5975 4.92727L4.6 11.3091V12.4545ZM2.8 14.0909V10.6136L12.88 1.47045C13.045 1.32045 13.2362 1.20455 13.4538 1.12273C13.6713 1.04091 13.9 1 14.14 1C14.38 1 14.6125 1.04091 14.8375 1.12273C15.0625 1.20455 15.265 1.32727 15.445 1.49091L16.6825 2.63636C16.8625 2.78636 16.9938 2.96364 17.0763 3.16818C17.1588 3.37273 17.2 3.58409 17.2 3.80227C17.2 4.00682 17.1588 4.20795 17.0763 4.40568C16.9938 4.60341 16.8625 4.78409 16.6825 4.94773L6.625 14.0909H2.8Z" fill="black"/>
</svg>
