<svg width="20.000000" height="20.000000" viewBox="0 0 20 20" fill="none" xmlns="http://www.w3.org/2000/svg" xmlns:xlink="http://www.w3.org/1999/xlink"> 
	<path id="man" d="M15 16.33L15 11.66L13.66 11.66L13.66 7.66C13.66 7.29 13.79 6.98 14.05 6.72C14.31 6.46 14.63 6.33 15 6.33L17.66 6.33C18.03 6.33 18.34 6.46 18.6 6.72C18.86 6.98 19 7.29 19 7.66L19 11.66L17.66 11.66L17.66 16.33L15 16.33ZM16.33 5.66C15.96 5.66 15.65 5.53 15.39 5.27C15.13 5.01 15 4.7 15 4.33C15 3.96 15.13 3.65 15.39 3.39C15.65 3.13 15.96 3 16.33 3C16.7 3 17.01 3.13 17.27 3.39C17.53 3.65 17.66 3.96 17.66 4.33C17.66 4.7 17.53 5.01 17.27 5.27C17.01 5.53 16.7 5.66 16.33 5.66Z" fill="#909090" fill-opacity="1.000000" fill-rule="nonzero"/>
	<path id="Vector" d="M11.61 6.33C11.48 5.94 11.1 5.66 10.66 5.66L3.33 5.66C2.89 5.66 2.52 5.94 2.38 6.33L1.07 10.11C1.02 10.25 1 10.4 1 10.56L1 15.33C1 15.88 1.44 16.33 2 16.33C2.55 16.33 3 15.88 3 15.33L3 15L11 15L11 15.33C11 15.87 11.44 16.33 12 16.33C12.54 16.33 13 15.88 13 15.33L13 10.56C13 10.41 12.97 10.25 12.92 10.11L11.61 6.33ZM3.33 13C2.78 13 2.33 12.55 2.33 12C2.33 11.44 2.78 11 3.33 11C3.88 11 4.33 11.44 4.33 12C4.33 12.55 3.88 13 3.33 13ZM10.66 13C10.11 13 9.66 12.55 9.66 12C9.66 11.44 10.11 11 10.66 11C11.22 11 11.66 11.44 11.66 12C11.66 12.55 11.22 13 10.66 13ZM2.33 9.66L3.18 7.11C3.27 6.85 3.52 6.66 3.81 6.66L10.18 6.66C10.47 6.66 10.72 6.85 10.82 7.11L11.66 9.66L2.33 9.66Z" fill="#909090" fill-opacity="1.000000" fill-rule="nonzero"/>
</svg>
