<svg width="30" height="30" viewBox="0 0 30 30" fill="none" xmlns="http://www.w3.org/2000/svg">
<path d="M27.807 5H2.193C0.984 5 0 5.969 0 7.16V22.841C0 24.031 0.984 25 2.193 25H27.807C29.017 25 30 24.031 30 22.841V7.16C30 5.969 29.017 5 27.807 5ZM27.807 23.578H2.193C1.78 23.578 1.445 23.247 1.445 22.841V17.761H28.555V22.841C28.555 23.247 28.22 23.578 27.807 23.578ZM2.193 6.422H27.807C28.22 6.422 28.555 6.753 28.555 7.16V12.163H1.445V7.16C1.445 6.753 1.78 6.422 2.193 6.422ZM28.555 13.585V16.34H1.445V13.585H28.555Z" fill="black"/>
<path d="M6.42309 20.641H3.51109C3.11309 20.641 2.78809 20.959 2.78809 21.351C2.78809 21.744 3.11309 22.063 3.51109 22.063H6.42309C6.82109 22.063 7.14509 21.744 7.14509 21.351C7.14509 20.959 6.82109 20.641 6.42309 20.641Z" fill="black"/>
<path d="M11.741 20.641H8.82603C8.42803 20.641 8.10303 20.959 8.10303 21.351C8.10303 21.744 8.42703 22.063 8.82603 22.063H11.741C12.139 22.063 12.463 21.744 12.463 21.351C12.463 20.959 12.14 20.641 11.741 20.641Z" fill="black"/>
<path d="M17.0549 20.641H14.1429C13.7459 20.641 13.4209 20.959 13.4209 21.351C13.4209 21.744 13.7449 22.063 14.1429 22.063H17.0549C17.4529 22.063 17.7789 21.744 17.7789 21.351C17.7779 20.959 17.4529 20.641 17.0549 20.641Z" fill="black"/>
<path d="M18.6219 10.917H25.6879C26.0869 10.917 26.4109 10.598 26.4109 10.206V8.37802C26.4109 7.98502 26.0879 7.66602 25.6879 7.66602H18.6219C18.2239 7.66602 17.8989 7.98502 17.8989 8.37802V10.206C17.8989 10.598 18.2239 10.917 18.6219 10.917ZM24.9669 9.08902V9.49602H19.3459V9.08902H24.9669Z" fill="black"/>
<path d="M22.9269 19.218C21.9349 19.218 21.1279 20.013 21.1279 20.989C21.1279 21.967 21.9349 22.761 22.9269 22.761C23.9199 22.761 24.7259 21.966 24.7259 20.989C24.7259 20.013 23.9199 19.218 22.9269 19.218ZM22.9269 20.641C23.1219 20.641 23.2809 20.797 23.2809 20.99C23.2809 21.183 23.1229 21.34 22.9269 21.34C22.7309 21.34 22.5729 21.184 22.5729 20.99C22.5729 20.797 22.7309 20.641 22.9269 20.641Z" fill="black"/>
</svg>
