<svg width="19" height="44" viewBox="0 0 19 44" fill="none" xmlns="http://www.w3.org/2000/svg">
<g filter="url(#filter0_d_3275_2272)">
<path d="M0 2H10C12.7614 2 15 4.23858 15 7V37C15 39.7614 12.7614 42 10 42H0V2Z" fill="white" fill-opacity="0.2" shape-rendering="crispEdges"/>
<path d="M0.5 2.5H10C12.4853 2.5 14.5 4.51472 14.5 7V37C14.5 39.4853 12.4853 41.5 10 41.5H0.5V2.5Z" stroke="white" stroke-opacity="0.2" shape-rendering="crispEdges"/>
<g clip-path="url(#clip0_3275_2272)">
<path d="M7 21.5L10 18.75V16L4 21.5L10 27V24.25L7 21.5Z" fill="white"/>
</g>
<rect y="3" width="1" height="38" fill="#36648F"/>
</g>
<defs>
<filter id="filter0_d_3275_2272" x="0" y="0" width="19" height="44" filterUnits="userSpaceOnUse" color-interpolation-filters="sRGB">
<feFlood flood-opacity="0" result="BackgroundImageFix"/>
<feColorMatrix in="SourceAlpha" type="matrix" values="0 0 0 0 0 0 0 0 0 0 0 0 0 0 0 0 0 0 127 0" result="hardAlpha"/>
<feOffset dx="2"/>
<feGaussianBlur stdDeviation="1"/>
<feComposite in2="hardAlpha" operator="out"/>
<feColorMatrix type="matrix" values="0 0 0 0 0 0 0 0 0 0 0 0 0 0 0 0 0 0 0.1 0"/>
<feBlend mode="normal" in2="BackgroundImageFix" result="effect1_dropShadow_3275_2272"/>
<feBlend mode="normal" in="SourceGraphic" in2="effect1_dropShadow_3275_2272" result="shape"/>
</filter>
<clipPath id="clip0_3275_2272">
<path d="M4 16H5C7.76142 16 10 18.2386 10 21V22C10 24.7614 7.76142 27 5 27H4V16Z" fill="white"/>
</clipPath>
</defs>
</svg>
