<svg width="160" height="16" viewBox="0 0 160 16" fill="none" xmlns="http://www.w3.org/2000/svg">
<path d="M67.2184 16H54.9656V12.092H65.3872V11.1736H54.932V9.6704H60.1768V8.3672H54V6.864H68.0176V8.3672H61.8416V9.6704H67.0512V12.5592C67.0512 12.9152 66.9736 13.172 66.8184 13.328C66.6632 13.4824 66.408 13.5608 66.0528 13.5608H56.6296V14.4968H67.2184V16ZM67.2016 6.18H65.2864L63.0736 3.7928C62.972 3.68 62.884 3.58 62.8056 3.4912C62.7272 3.4024 62.648 3.3272 62.564 3.2664C62.4808 3.2056 62.3904 3.1584 62.2896 3.124C62.1896 3.0912 62.068 3.0736 61.924 3.0736H60.092C59.9472 3.0736 59.8256 3.0904 59.7256 3.124C59.6264 3.1584 59.5336 3.2056 59.4512 3.2664C59.368 3.3272 59.2872 3.4024 59.2096 3.4912C59.1312 3.58 59.0416 3.68 58.9432 3.7928L56.728 6.18H54.8136L57.576 3.0736H55.0472V1.5704H60.1744V0H61.84V1.5704H66.9664V3.0736H64.4352L67.2016 6.18Z" fill="#003976"/>
<path d="M78.4392 4.8938C78.4392 5.461 78.332 5.9706 78.1224 6.4218C77.9112 6.8722 77.6168 7.2562 77.2392 7.573C76.8608 7.8914 76.404 8.1354 75.8656 8.309C75.328 8.481 74.7368 8.5682 74.0928 8.5682C73.4384 8.5682 72.8432 8.481 72.3104 8.309C71.7784 8.1354 71.3232 7.8922 70.9464 7.573C70.5688 7.2562 70.2744 6.8714 70.0632 6.4218C69.852 5.9706 69.7472 5.461 69.7472 4.8938V4.4266C69.7472 3.8578 69.852 3.3498 70.0632 2.8986C70.2752 2.4474 70.5696 2.0626 70.9464 1.7458C71.3232 1.429 71.7784 1.185 72.3104 1.0114C72.8432 0.837797 73.4376 0.752197 74.0928 0.752197C74.7368 0.752197 75.328 0.837797 75.8656 1.0114C76.404 1.185 76.8608 1.4282 77.2392 1.7458C77.6168 2.0626 77.9112 2.4474 78.1224 2.8986C78.332 3.3498 78.4392 3.8578 78.4392 4.4266V4.8938ZM82.168 14.697C82.168 15.1314 82.068 15.4498 81.868 15.6482C81.6696 15.8498 81.352 15.9498 80.9192 15.9498H70.6312V9.5362H72.2952V11.141H80.5024V9.5362H82.168V14.697ZM76.7744 4.5098C76.7744 3.797 76.5272 3.2426 76.0328 2.8474C75.54 2.4522 74.8928 2.2554 74.0936 2.2554C73.2944 2.2554 72.648 2.4522 72.1544 2.8474C71.66 3.2426 71.4136 3.7978 71.4136 4.5098V4.8098C71.4136 5.5226 71.66 6.077 72.1544 6.4722C72.648 6.8674 73.2944 7.0642 74.0936 7.0642C74.8928 7.0642 75.54 6.8674 76.0328 6.4722C76.5272 6.077 76.7744 5.5218 76.7744 4.8098V4.5098ZM80.5024 14.4474V12.6098H72.2952V14.4474H80.5024ZM82.168 8.7674H80.5024V0.851397H82.168V8.7674Z" fill="#003976"/>
<path d="M93.272 8.96867H91.608V2.53907H89.8096C89.4552 2.53907 89.2024 2.60787 89.052 2.74867C88.9024 2.88787 88.768 3.09107 88.644 3.35667L86.1632 8.96947H84.3152L86.9448 2.97267C87.0904 2.66147 87.224 2.38387 87.3448 2.13827C87.4672 1.89427 87.6136 1.68947 87.7872 1.52867C87.9592 1.36787 88.1664 1.24467 88.4104 1.16147C88.6544 1.07747 88.9656 1.03667 89.3424 1.03667H93.2712V8.96867H93.272ZM97.2512 15.9503H95.5856V11.5735H85.6304V10.0703H97.2512V15.9503ZM97.2512 9.30307H95.5856V0.851074H97.2512V9.30307Z" fill="#003976"/>
<path d="M113.266 10.9393H107.09V15.9505H105.425V10.9393H99.2488V9.4361H113.266V10.9393H113.266ZM112.901 8.2673H111.069L108.988 3.1409C108.921 2.9609 108.821 2.8001 108.687 2.6553C108.555 2.5113 108.35 2.4393 108.071 2.4393H104.442C104.165 2.4393 103.959 2.5113 103.826 2.6553C103.693 2.8009 103.593 2.9617 103.526 3.1409L101.445 8.2673H99.6136L101.977 2.5217C102.078 2.2657 102.19 2.0401 102.31 1.8449C102.433 1.6513 102.579 1.4857 102.752 1.3513C102.925 1.2185 103.13 1.1169 103.368 1.0433C103.608 0.971303 103.893 0.935303 104.225 0.935303H108.288C108.62 0.935303 108.906 0.971303 109.144 1.0433C109.383 1.1169 109.588 1.2185 109.761 1.3513C109.934 1.4857 110.079 1.6513 110.203 1.8449C110.323 2.0401 110.436 2.2649 110.534 2.5217L112.901 8.2673Z" fill="#003976"/>
<path d="M123.438 14.7471H121.774V2.53907H120.142C119.787 2.53907 119.538 2.60787 119.393 2.74867C119.248 2.88787 119.142 3.09107 119.076 3.35667L116.246 14.7471H114.481L117.328 3.22387C117.406 2.90227 117.498 2.60547 117.603 2.33827C117.71 2.07267 117.847 1.83987 118.02 1.64627C118.191 1.45107 118.404 1.30067 118.66 1.19587C118.915 1.08947 119.238 1.03667 119.626 1.03667H123.438V14.7471ZM127.417 15.9503H125.753V0.851074H127.417V15.9503Z" fill="#003976"/>
<path d="M143.433 14.9473H129.415V13.4457H143.433V14.9473ZM143.066 10.4721H141.235L139.153 3.22329C139.098 3.03449 139.002 2.87049 138.863 2.73129C138.723 2.59209 138.515 2.52169 138.238 2.52169H134.609C134.332 2.52169 134.124 2.59209 133.985 2.73129C133.847 2.87049 133.749 3.03449 133.694 3.22329L131.613 10.4721H129.783L132.145 2.60489C132.311 2.07209 132.558 1.67369 132.886 1.41129C133.214 1.15049 133.716 1.01929 134.394 1.01929H138.454C139.132 1.01929 139.635 1.15049 139.962 1.41129C140.29 1.67369 140.537 2.07209 140.702 2.60489L143.066 10.4721Z" fill="#003976"/>
<path d="M151.74 9.08387H145.031V2.03747C145.031 1.68307 145.109 1.42467 145.263 1.26867C145.419 1.11267 145.675 1.03587 146.03 1.03587H150.875V2.50467H146.679V4.30947H150.558V5.74547H146.679V7.61587H151.74V9.08387ZM158 14.6967C158 15.1311 157.899 15.4495 157.7 15.6479C157.499 15.8495 157.183 15.9495 156.751 15.9495H146.296V11.4079C146.296 11.0519 146.374 10.7951 146.529 10.6391C146.684 10.4831 146.939 10.4047 147.295 10.4047H158V14.6967ZM156.335 14.4471V11.9079H147.96V14.4471H156.335ZM154.753 9.63747H153.103V5.52787H151.223V3.99187H153.103V0.851074H154.753V9.63747ZM158 9.63747H156.335V0.851074H158V9.63747Z" fill="#003976"/>
<path d="M24.853 11.1703C24.853 12.0535 24.0073 12.7702 22.9643 12.7702H17.1519C16.108 12.7702 15.2623 12.0535 15.2623 11.1703C15.2623 10.2871 16.1088 9.57031 17.1519 9.57031H22.9643C24.0073 9.57031 24.853 10.2863 24.853 11.1703Z" fill="#0D8CB1"/>
<path d="M9.59138 7.71099C9.59138 8.75497 8.74493 9.60135 7.70266 9.60135H1.88945C0.846384 9.60135 0.000732422 8.75417 0.000732422 7.71099C0.000732422 6.66621 0.847183 5.81982 1.88945 5.81982H7.70266C8.74493 5.81902 9.59138 6.66621 9.59138 7.71099Z" fill="url(#paint0_linear_3377_6287)"/>
<path d="M45.9998 14.1108C45.9998 15.1548 45.1542 16.0011 44.1111 16.0011C43.0672 16.0011 42.2224 15.154 42.2224 14.1108V1.89183C42.2224 0.847848 43.068 0.00146484 44.1111 0.00146484C45.155 0.00146484 45.9998 0.848648 45.9998 1.89183V14.1108Z" fill="url(#paint1_linear_3377_6287)"/>
<path d="M32.8435 14.1108C32.8435 15.1548 31.9971 16.0011 30.954 16.0011C29.9109 16.0011 29.0653 15.154 29.0653 14.1108V1.89183C29.0653 0.847848 29.9117 0.00146484 30.954 0.00146484C31.9979 0.00146484 32.8435 0.848648 32.8435 1.89183V14.1108Z" fill="url(#paint2_linear_3377_6287)"/>
<path d="M3.7784 14.1108C3.7784 15.1548 2.93277 16.0011 1.8897 16.0011C0.846628 16.0011 0.000976562 15.154 0.000976562 14.1108V1.89183C0.000976562 0.847848 0.847427 0.00146484 1.8897 0.00146484C2.93357 0.00146484 3.7784 0.848648 3.7784 1.89183V14.1108Z" fill="url(#paint3_linear_3377_6287)"/>
<path d="M3.77822 3.78369H0V5.81965H3.77822V3.78369Z" fill="url(#paint4_linear_3377_6287)"/>
<path d="M32.8436 2.03809H29.0646V7.85557H32.8436V2.03809Z" fill="url(#paint5_linear_3377_6287)"/>
<path d="M45.9998 2.03809H42.2216V7.85557H45.9998V2.03809Z" fill="url(#paint6_linear_3377_6287)"/>
<path d="M5.8132 5.81885H3.7782V9.60117H5.8132V5.81885Z" fill="url(#paint7_linear_3377_6287)"/>
<path d="M23.4007 9.57031H16.4246V12.7702H23.4007V9.57031Z" fill="url(#paint8_linear_3377_6287)"/>
<path d="M10.6081 0.00146484H1.88872C0.845652 0.00146484 0 0.848648 0 1.89183V3.78299H1.88872H4.39608H10.6081C11.652 3.78299 12.4977 2.93581 12.4977 1.89183C12.4985 0.848648 11.652 0.00146484 10.6081 0.00146484Z" fill="url(#paint9_linear_3377_6287)"/>
<path d="M23.7252 14.8834C24.1664 15.8514 25.2902 16.2698 26.2366 15.8194C27.1821 15.3682 27.5913 14.217 27.1501 13.249L21.6231 1.11807C21.1819 0.150093 20.0581 -0.268298 19.1117 0.182093C18.1654 0.633284 17.7577 1.78446 18.1981 2.75244L23.7252 14.8834Z" fill="url(#paint10_linear_3377_6287)"/>
<path d="M24.3863 7.02514L21.6224 1.09326L18.1982 2.69163L20.9614 8.62351L24.3863 7.02514Z" fill="url(#paint11_linear_3377_6287)"/>
<path d="M16.1 14.8834C15.6588 15.8514 14.535 16.2698 13.5894 15.8194C12.6431 15.3682 12.2346 14.217 12.675 13.249L18.2021 1.11807C18.6441 0.150093 19.7679 -0.268298 20.7135 0.182093C21.659 0.633284 22.0675 1.78446 21.6278 2.75244L16.1 14.8834Z" fill="url(#paint12_linear_3377_6287)"/>
<path d="M45.4467 0.554765C44.7082 -0.18362 43.5124 -0.18362 42.7747 0.554765L37.5313 5.80186L32.2888 0.554765C31.5511 -0.18362 30.3545 -0.18362 29.6168 0.554765C28.879 1.29315 28.879 2.49073 29.6168 3.22911L36.1941 9.81138C36.5634 10.181 37.047 10.3658 37.5313 10.365C38.0157 10.3658 38.5001 10.181 38.8694 9.81138L45.4467 3.22911C46.1844 2.49073 46.1844 1.29315 45.4467 0.554765Z" fill="url(#paint13_linear_3377_6287)"/>
<defs>
<linearGradient id="paint0_linear_3377_6287" x1="-6.68653e-05" y1="7.71035" x2="9.59138" y2="7.71035" gradientUnits="userSpaceOnUse">
<stop stop-color="#12FF82"/>
<stop offset="1" stop-color="#445BDB"/>
</linearGradient>
<linearGradient id="paint1_linear_3377_6287" x1="44.1107" y1="0.00144609" x2="44.1107" y2="16.0011" gradientUnits="userSpaceOnUse">
<stop stop-color="#003399"/>
<stop offset="1" stop-color="#3366FF"/>
</linearGradient>
<linearGradient id="paint2_linear_3377_6287" x1="30.9537" y1="0.00144609" x2="30.9537" y2="16.0011" gradientUnits="userSpaceOnUse">
<stop stop-color="#12FF82"/>
<stop offset="1" stop-color="#445BDB"/>
</linearGradient>
<linearGradient id="paint3_linear_3377_6287" x1="1.88913" y1="0.00144609" x2="1.88913" y2="16.0011" gradientUnits="userSpaceOnUse">
<stop stop-color="#12FF82"/>
<stop offset="1" stop-color="#445BDB"/>
</linearGradient>
<linearGradient id="paint4_linear_3377_6287" x1="1.88895" y1="3.78329" x2="1.88895" y2="5.81917" gradientUnits="userSpaceOnUse">
<stop stop-opacity="0.5"/>
<stop offset="0.8" stop-opacity="0.05"/>
<stop offset="1" stop-opacity="0"/>
</linearGradient>
<linearGradient id="paint5_linear_3377_6287" x1="30.9538" y1="2.03801" x2="30.9538" y2="7.85581" gradientUnits="userSpaceOnUse">
<stop stop-opacity="0.75"/>
<stop offset="1" stop-opacity="0"/>
</linearGradient>
<linearGradient id="paint6_linear_3377_6287" x1="44.1107" y1="2.03801" x2="44.1107" y2="7.85581" gradientUnits="userSpaceOnUse">
<stop stop-opacity="0.75"/>
<stop offset="1" stop-opacity="0"/>
</linearGradient>
<linearGradient id="paint7_linear_3377_6287" x1="3.77788" y1="7.71017" x2="5.8128" y2="7.71017" gradientUnits="userSpaceOnUse">
<stop stop-opacity="0.5"/>
<stop offset="1" stop-opacity="0"/>
</linearGradient>
<linearGradient id="paint8_linear_3377_6287" x1="16.4244" y1="11.1702" x2="23.4003" y2="11.1702" gradientUnits="userSpaceOnUse">
<stop stop-opacity="0.75"/>
<stop offset="0.4" stop-opacity="0"/>
<stop offset="0.6" stop-opacity="0"/>
<stop offset="1" stop-opacity="0.75"/>
</linearGradient>
<linearGradient id="paint9_linear_3377_6287" x1="0" y1="1.89239" x2="12.4982" y2="1.89239" gradientUnits="userSpaceOnUse">
<stop stop-color="#12FF82"/>
<stop offset="1" stop-color="#445BDB"/>
</linearGradient>
<linearGradient id="paint10_linear_3377_6287" x1="18.9113" y1="0.280171" x2="26.4469" y2="15.7171" gradientUnits="userSpaceOnUse">
<stop offset="0.1697" stop-color="#12FF82"/>
<stop offset="1" stop-color="#445BDB"/>
</linearGradient>
<linearGradient id="paint11_linear_3377_6287" x1="19.8441" y1="1.88837" x2="22.7399" y2="7.82034" gradientUnits="userSpaceOnUse">
<stop stop-opacity="0.75"/>
<stop offset="1" stop-opacity="0"/>
</linearGradient>
<linearGradient id="paint12_linear_3377_6287" x1="14.4511" y1="2.46061" x2="19.8586" y2="13.5378" gradientUnits="userSpaceOnUse">
<stop stop-color="#12FF82"/>
<stop offset="1" stop-color="#445BDB"/>
</linearGradient>
<linearGradient id="paint13_linear_3377_6287" x1="29.0647" y1="5.18307" x2="46.0004" y2="5.18307" gradientUnits="userSpaceOnUse">
<stop offset="0.1" stop-color="#26D6A5"/>
<stop offset="0.5" stop-color="#3566DC"/>
<stop offset="1" stop-color="#3179E8"/>
</linearGradient>
</defs>
</svg>
