<svg width="160" height="16" viewBox="0 0 160 16" fill="none" xmlns="http://www.w3.org/2000/svg">
<path d="M69.5679 16H59.7243V12.356H68.4334V11.5416H59.7243V10.1744H64.0698V9.064H58.1818V7.6776H71.6632C71.6981 7.9984 71.6632 8.3088 71.557 8.6128C71.4501 8.9128 71.2189 9.064 70.8639 9.064H65.7578V10.1752H70.1032V13.688H61.4269V14.632H70.3687C70.4036 14.9536 70.3687 15.2616 70.2625 15.5568C70.1541 15.8528 69.9243 16 69.5679 16ZM65.6138 2.0352H69.0014C68.9672 2.492 68.9047 2.8312 68.8239 3.052C68.6821 3.3856 68.4523 3.6936 68.133 3.9768C67.813 4.26 67.4407 4.5208 67.0152 4.7536C67.3119 4.9144 67.6239 5.0496 67.9556 5.1624C68.285 5.2728 68.6189 5.3704 68.9483 5.456C69.2683 5.5312 69.5774 5.6 69.8807 5.66C70.1803 5.7224 70.4487 5.7768 70.6865 5.8264L70.3505 6.308C70.2683 6.4312 70.1803 6.5456 70.093 6.6504C70.0043 6.7544 69.8887 6.808 69.7454 6.808C69.6872 6.8184 69.5774 6.8248 69.4181 6.8248C69.2581 6.8248 69.0901 6.8024 68.9119 6.752C68.7469 6.7144 68.5272 6.6688 68.2559 6.6128C67.9847 6.5584 67.6829 6.488 67.3505 6.4C67.021 6.3272 66.6661 6.2248 66.2872 6.0952C65.909 5.9664 65.5301 5.8016 65.1519 5.604C64.6894 5.7888 64.2269 5.9544 63.7585 6.0952C63.2909 6.2376 62.8458 6.3584 62.421 6.456C61.9934 6.5664 61.6029 6.6576 61.2479 6.7328C60.8952 6.8072 60.6036 6.864 60.3796 6.8992C60.3338 6.9112 60.2632 6.924 60.1665 6.936C60.0727 6.948 60.0014 6.948 59.9549 6.936C59.8959 6.936 59.8392 6.9168 59.7883 6.88C59.733 6.8424 59.6821 6.8008 59.6349 6.7504C59.589 6.6904 59.5461 6.6296 59.5098 6.576C59.4763 6.52 59.4465 6.4736 59.4247 6.436L59.0683 5.8256C59.5767 5.6904 60.1469 5.5552 60.7803 5.4192C61.4123 5.2824 62.0603 5.1232 62.7229 4.9384C63.3963 4.7648 64.0683 4.5592 64.7374 4.3176C65.4058 4.0776 66.0276 3.78 66.6065 3.4216H60.1345V2.0352H63.821C64.0247 1.8136 64.2363 1.5328 64.461 1.1928C64.6858 0.8544 64.8981 0.4568 65.1003 0L66.6952 0.6472C66.613 0.82 66.4719 1.032 66.2698 1.2856C66.0683 1.5392 65.8494 1.7888 65.6138 2.0352Z" fill="#003976"/>
<path d="M73.6138 5.12479C73.6138 4.66879 73.7032 4.23119 73.8814 3.81039C74.0574 3.39119 74.3061 3.02319 74.624 2.69999C74.9447 2.39359 75.3199 2.14399 75.7512 1.95199C76.1825 1.76159 76.6538 1.66479 77.1629 1.66479C77.6596 1.66479 78.1236 1.76159 78.5549 1.95199C78.9847 2.14399 79.3607 2.39359 79.6814 2.69999C80.0007 3.02319 80.2516 3.39119 80.4341 3.81039C80.6167 4.23119 80.7105 4.66879 80.7105 5.12479C80.7105 5.60399 80.6167 6.05599 80.4341 6.47519C80.2516 6.89439 80.0007 7.25919 79.6814 7.56719C79.3614 7.88719 78.9847 8.13519 78.5549 8.31439C78.1236 8.49439 77.6596 8.58319 77.1629 8.58319C76.6538 8.58319 76.1818 8.49359 75.7512 8.31439C75.3199 8.13519 74.9454 7.88719 74.624 7.56719C74.3061 7.25919 74.0581 6.89439 73.8814 6.47519C73.7032 6.05599 73.6138 5.60399 73.6138 5.12479ZM83.8138 11.4688V9.89599H85.4974V15.9064H75.0334V9.89599H76.7178V11.4688H83.8138ZM75.2996 5.12479C75.2996 5.70399 75.4763 6.20399 75.8305 6.62319C76.1847 7.04159 76.6276 7.24959 77.1621 7.24959C77.6916 7.24959 78.1381 7.04159 78.4909 6.62319C78.8465 6.20399 79.0247 5.70399 79.0247 5.12479C79.0247 4.55839 78.8465 4.05999 78.4909 3.63519C78.1381 3.21039 77.6909 2.99759 77.1621 2.99759C76.6276 2.99759 76.1847 3.21039 75.8305 3.63519C75.4763 4.05999 75.2996 4.55839 75.2996 5.12479ZM76.7185 14.5208H83.8138V12.8376H76.7185V14.5208ZM85.4981 1.94239V9.06399H83.8145V0.925587C83.992 0.900787 84.1796 0.894387 84.373 0.907187C84.568 0.918387 84.7476 0.963987 84.9141 1.03759C85.0792 1.11039 85.2181 1.22239 85.3316 1.37039C85.4414 1.51679 85.4981 1.70959 85.4981 1.94239Z" fill="#003976"/>
<path d="M93.2145 2.58959V3.14399C93.1796 3.36719 93.1389 3.58559 93.0901 3.80239C93.0429 4.01679 92.9832 4.23199 92.9134 4.43999C93.2079 4.89599 93.5636 5.32479 93.9781 5.72479C94.392 6.12639 94.7934 6.47919 95.1832 6.79039C95.5723 7.09839 95.9229 7.35679 96.2298 7.56719C96.5381 7.77519 96.7447 7.90479 96.8509 7.95439L96.496 8.50879C96.413 8.63359 96.3243 8.73999 96.2298 8.83359C96.1352 8.92479 96.0167 8.98399 95.8749 9.00959C95.8036 9.02159 95.7301 9.02159 95.653 9.00959C95.5759 8.99839 95.4727 8.95279 95.3447 8.87999C95.1658 8.80639 94.9447 8.67359 94.677 8.48159C94.4101 8.29039 94.1301 8.06159 93.8356 7.78799C93.5396 7.53039 93.2429 7.24639 92.949 6.93759C92.6538 6.62959 92.3861 6.31439 92.1483 5.99359C91.7127 6.69759 91.2276 7.31679 90.6952 7.85279C90.1643 8.38959 89.701 8.79199 89.312 9.06399L89.2043 9.17519C89.1454 9.21279 89.0909 9.23359 89.0378 9.23999C88.984 9.24559 88.9272 9.24879 88.8676 9.24879C88.7963 9.24879 88.7345 9.23999 88.6829 9.22079C88.629 9.20319 88.5774 9.17519 88.5316 9.13759C88.4727 9.10319 88.4218 9.06079 88.381 9.01919C88.3374 8.97519 88.2938 8.92399 88.2487 8.86159L87.8036 8.32559C88.064 8.14079 88.3869 7.89439 88.7709 7.58399C89.1541 7.27759 89.5301 6.88719 89.8981 6.41839C90.2516 5.95039 90.568 5.39599 90.8465 4.75359C91.1236 4.11439 91.2923 3.35999 91.352 2.49759V1.57359C91.5294 1.56079 91.7258 1.56079 91.9454 1.57359C92.165 1.58479 92.3629 1.62879 92.5403 1.70319C92.7294 1.77599 92.8872 1.88719 93.0189 2.03599C93.149 2.18319 93.2145 2.36799 93.2145 2.58959ZM89.8443 10.3584H100.311V16H98.6254V11.7464H89.845L89.8443 10.3584ZM100.311 1.94239V9.43599H98.6254V0.925587C98.8014 0.900787 98.989 0.894387 99.1825 0.907187C99.3796 0.918387 99.5592 0.963987 99.7258 1.03759C99.8901 1.11039 100.029 1.22239 100.142 1.37039C100.253 1.51679 100.311 1.70959 100.311 1.94239Z" fill="#003976"/>
<path d="M110.457 16H108.772V11.3768H102.883V9.98801H116.365C116.399 10.3112 116.365 10.6216 116.258 10.924C116.152 11.2256 115.921 11.3768 115.565 11.3768H110.457L110.457 16ZM110.687 2.55441V2.58961C110.638 2.80001 110.582 2.99841 110.509 3.18321C110.438 3.36641 110.362 3.55201 110.28 3.73761C110.586 4.13121 110.962 4.50641 111.404 4.85601C111.849 5.20801 112.307 5.53761 112.78 5.84561C113.265 6.15441 113.749 6.43281 114.238 6.68721C114.721 6.93921 115.163 7.15761 115.565 7.34321C115.424 7.52881 115.303 7.68561 115.202 7.81361C115.102 7.94561 115.017 8.04561 114.946 8.12001C114.873 8.19281 114.809 8.24801 114.75 8.27921C114.689 8.30801 114.625 8.32481 114.553 8.32481C114.518 8.32481 114.492 8.32481 114.476 8.32481C114.456 8.32481 114.43 8.31201 114.394 8.28721C114.36 8.27521 114.316 8.25601 114.262 8.23361C114.207 8.20641 114.14 8.17761 114.058 8.14001C113.892 8.08961 113.634 7.97921 113.277 7.80641C112.923 7.63361 112.527 7.41681 112.089 7.15761C111.638 6.91201 111.172 6.62321 110.687 6.28961C110.203 5.95601 109.748 5.59921 109.32 5.21601C108.967 5.63441 108.588 6.01201 108.185 6.34481C107.782 6.67681 107.394 6.97201 107.014 7.23281C106.635 7.49041 106.285 7.71361 105.961 7.89921C105.635 8.08241 105.376 8.22641 105.188 8.32401C105.033 8.40961 104.93 8.46161 104.878 8.48001C104.824 8.49841 104.762 8.50801 104.691 8.50801C104.62 8.50801 104.554 8.49281 104.495 8.46161C104.437 8.43201 104.383 8.39281 104.335 8.34241C104.288 8.29201 104.244 8.23841 104.201 8.18481C104.16 8.12881 104.117 8.07041 104.069 8.00961L103.678 7.49041C103.963 7.34241 104.373 7.11841 104.911 6.81601C105.449 6.51441 105.99 6.14081 106.534 5.69761C107.089 5.25361 107.582 4.74721 108.014 4.18081C108.446 3.61441 108.71 2.99121 108.804 2.31201V1.57361C108.981 1.54801 109.18 1.54321 109.399 1.55521C109.616 1.56801 109.821 1.60481 110.011 1.66561C110.201 1.74081 110.359 1.84881 110.489 1.98801C110.622 2.13121 110.687 2.31841 110.687 2.55441Z" fill="#003976"/>
<path d="M123.015 3.2376V3.8856C123.005 4.3416 122.968 4.7816 122.902 5.2088C122.834 5.6336 122.752 6.0376 122.644 6.4184C122.938 7.0728 123.3 7.6776 123.726 8.2336C124.151 8.7856 124.564 9.2752 124.968 9.69359C125.381 10.1 125.746 10.4288 126.059 10.6832C126.371 10.9352 126.569 11.0848 126.652 11.1352L126.244 11.708C126.162 11.8328 126.073 11.9384 125.979 12.032C125.884 12.124 125.766 12.1824 125.623 12.208C125.588 12.22 125.553 12.2304 125.517 12.2352C125.482 12.2416 125.446 12.2392 125.409 12.2272C125.377 12.2272 125.334 12.2176 125.288 12.1992C125.24 12.1792 125.193 12.1416 125.146 12.0792C124.637 11.6232 124.087 11.0816 123.494 10.452C122.905 9.8232 122.373 9.108 121.9 8.3064C121.7 8.712 121.486 9.0952 121.262 9.45199C121.036 9.8104 120.806 10.1544 120.569 10.488C120.332 10.808 120.097 11.1104 119.861 11.396C119.625 11.6792 119.405 11.9496 119.206 12.2088L119.097 12.3192C119.038 12.3568 118.982 12.38 118.93 12.3864C118.876 12.3928 118.819 12.3952 118.759 12.3952C118.619 12.3952 118.489 12.3568 118.37 12.2832C118.252 12.2088 118.145 12.1176 118.052 12.0064L117.606 11.5064C117.715 11.408 117.963 11.1424 118.351 10.7104C118.742 10.28 119.153 9.7176 119.577 9.0272C119.991 8.3384 120.36 7.5384 120.685 6.632C121.009 5.7256 121.167 4.7488 121.155 3.7008V2.2208C121.333 2.208 121.532 2.208 121.75 2.2208C121.97 2.2328 122.167 2.2744 122.344 2.3496C122.532 2.4248 122.692 2.5344 122.823 2.6832C122.949 2.8312 123.015 3.0168 123.015 3.2376ZM130.11 2.1272V15.9064H128.426V1.1096C128.604 1.0984 128.79 1.0984 128.984 1.1096C129.181 1.1232 129.359 1.1648 129.526 1.24C129.69 1.3136 129.83 1.4248 129.942 1.5736C130.054 1.7216 130.11 1.9056 130.11 2.1272Z" fill="#003976"/>
<path d="M132.682 13.0424H146.163C146.198 13.3632 146.163 13.6736 146.057 13.9752C145.951 14.2776 145.72 14.4272 145.364 14.4272H132.682V13.0424ZM140.489 3.29359V3.51599C140.452 3.73679 140.406 3.96159 140.346 4.18959C140.287 4.41839 140.204 4.64319 140.098 4.86479C140.406 5.27279 140.781 5.67279 141.223 6.06879C141.668 6.46319 142.131 6.83759 142.616 7.19679C143.101 7.54239 143.59 7.86319 144.081 8.15839C144.572 8.45279 145.03 8.70639 145.455 8.91759C145.313 9.10319 145.191 9.25999 145.09 9.38799C144.99 9.51759 144.905 9.61919 144.834 9.69439C144.764 9.76959 144.697 9.82239 144.638 9.85039C144.58 9.88159 144.514 9.89679 144.444 9.89679C144.408 9.89679 144.381 9.89679 144.365 9.89679C144.346 9.89679 144.319 9.88479 144.284 9.86159C144.249 9.84879 144.205 9.83039 144.151 9.80479C144.097 9.78079 144.03 9.74959 143.948 9.71359C143.793 9.65119 143.54 9.52239 143.185 9.32479C142.829 9.12639 142.421 8.88079 141.958 8.58479C141.499 8.28879 141.016 7.95359 140.514 7.57599C140.012 7.19919 139.541 6.79119 139.104 6.34639C138.737 6.79119 138.338 7.20959 137.908 7.60319C137.474 7.99919 137.059 8.35439 136.657 8.67519C136.254 8.98399 135.889 9.24559 135.565 9.46239C135.24 9.67759 135.001 9.82319 134.846 9.89599C134.764 9.94639 134.703 9.98319 134.66 10.0096C134.619 10.0328 134.586 10.0504 134.564 10.0624C134.54 10.0752 134.517 10.0808 134.494 10.0808C134.467 10.0808 134.439 10.0808 134.403 10.0808C134.333 10.0808 134.266 10.068 134.206 10.0432C134.149 10.0208 134.097 9.98319 134.046 9.93199C134.001 9.88319 133.956 9.83439 133.915 9.78479C133.872 9.73439 133.828 9.67999 133.782 9.61759L133.39 9.10159C133.65 8.95119 134.051 8.69679 134.598 8.33199C135.141 7.96719 135.696 7.52799 136.263 7.00879C136.83 6.49199 137.339 5.91919 137.791 5.28799C138.238 4.66079 138.512 4.00639 138.606 3.32719V2.31279C138.784 2.28799 138.983 2.28159 139.2 2.29439C139.42 2.30639 139.622 2.34479 139.812 2.40719C140.003 2.47999 140.16 2.58799 140.291 2.73039C140.422 2.87039 140.489 3.05839 140.489 3.29359Z" fill="#003976"/>
<path d="M153.792 2.03519V3.42239H149.977V4.71839H153.259V6.10399H149.977V7.49119H154.324C154.431 7.86239 154.396 8.19199 154.218 8.48079C154.041 8.77039 153.81 8.90399 153.528 8.87919H148.294V2.03519H153.792ZM149.535 15.8144V10.3592H160V15.8144H149.535ZM158.316 14.4272V11.7456H151.22V14.4272H158.316ZM157.108 2.12719V9.43599H155.476V5.93759H153.792V4.53359H155.476V1.10959C155.654 1.08479 155.838 1.07919 156.027 1.09119C156.216 1.10479 156.393 1.14719 156.559 1.22159C156.713 1.29679 156.842 1.40639 156.948 1.55519C157.056 1.70239 157.108 1.89439 157.108 2.12719ZM160 1.94239V9.43599H158.369V0.925587C158.547 0.900787 158.729 0.894387 158.918 0.907187C159.107 0.918387 159.285 0.963987 159.452 1.03759C159.604 1.11039 159.735 1.22239 159.841 1.37039C159.949 1.51679 160 1.70959 160 1.94239Z" fill="#003976"/>
<path d="M14.1535 6.1904H6.352L7.15709 3.2296H13.3905C13.7753 3.2296 14.1382 3.1232 14.4662 2.9096C14.7571 2.7256 15.0095 2.4864 15.248 2.1688C15.4233 1.9096 15.5658 1.628 15.6727 1.3344C15.7687 1.0672 15.8436 0.8032 15.9004 0.5424L16.0153 0H4.35927L0 16H3.67927L5.472 9.42H13.2749L14.1535 6.1904Z" fill="url(#paint0_linear_3077_8423)"/>
<path d="M27.7389 8.244L27.2589 5.5504L26.4829 1.2752C26.3819 0.808 26.1317 0.4688 25.7411 0.2688C25.3906 0.092 24.9818 0 24.5251 0H22.8808L11.5215 16H15.3295L18.0706 12.1H24.5586L25.2357 16H29.1651C29.1651 16 28.5913 12.9736 28.3702 11.8C28.1535 10.6232 27.9448 9.4408 27.7389 8.244ZM20.3215 8.892L23.3026 4.6624L24.0211 8.892H20.3215Z" fill="url(#paint1_linear_3077_8423)"/>
<path d="M49.6851 0C49.1898 0 48.72 0.072 48.2865 0.2112C47.7818 0.3752 47.288 0.7328 46.8196 1.2768L46.0989 2.1376H46.2363L41.448 9.0264C41.3731 8.584 41.3047 8.1312 41.2407 7.6624L40.9018 5.2096L40.6094 3.0032C40.5222 2.3176 40.4254 1.7544 40.3141 1.292C40.1287 0.7392 39.8269 0.3752 39.4145 0.2088C39.0581 0.072 38.6363 0 38.1527 0H35.3912L31.0298 16H34.6894L37.2705 6.5296C37.3883 7.2952 37.5098 8.0408 37.6429 8.7576C37.7643 9.5464 37.8974 10.3344 38.0392 11.1216C38.1811 11.9016 38.3171 12.74 38.4487 13.6432L38.4996 13.9976H41.6123L41.8581 13.6632C42.4792 12.8224 43.0712 12.0128 43.6371 11.232C44.1978 10.4504 44.7571 9.6616 45.3171 8.8584C45.8458 8.0912 46.384 7.3072 46.9309 6.5024L44.3469 16H48.0058L52.3636 0H49.6851Z" fill="url(#paint2_linear_3077_8423)"/>
<defs>
<linearGradient id="paint0_linear_3077_8423" x1="-1.34698" y1="8" x2="49.2505" y2="8" gradientUnits="userSpaceOnUse">
<stop stop-color="#013A80"/>
<stop offset="0.8" stop-color="#0175BE"/>
</linearGradient>
<linearGradient id="paint1_linear_3077_8423" x1="-1.34906" y1="8" x2="49.2538" y2="8" gradientUnits="userSpaceOnUse">
<stop stop-color="#013A80"/>
<stop offset="0.8" stop-color="#0175BE"/>
</linearGradient>
<linearGradient id="paint2_linear_3077_8423" x1="-1.35196" y1="8" x2="49.2512" y2="8" gradientUnits="userSpaceOnUse">
<stop stop-color="#013A80"/>
<stop offset="0.8" stop-color="#0175BE"/>
</linearGradient>
</defs>
</svg>
